<svg width="4356" height="1634" xmlns="http://www.w3.org/2000/svg" xmlns:xlink="http://www.w3.org/1999/xlink" overflow="hidden"><defs><clipPath id="clip0"><rect x="1589" y="66" width="4356" height="1634"/></clipPath><clipPath id="clip1"><rect x="1589" y="67" width="4354" height="1631"/></clipPath><clipPath id="clip2"><rect x="1919" y="117" width="3977" height="1059"/></clipPath><clipPath id="clip3"><rect x="1589" y="67" width="4354" height="1631"/></clipPath><clipPath id="clip4"><rect x="1589" y="67" width="4354" height="1631"/></clipPath><clipPath id="clip5"><rect x="1589" y="67" width="4354" height="1631"/></clipPath><clipPath id="clip6"><rect x="1589" y="67" width="4354" height="1631"/></clipPath><clipPath id="clip7"><rect x="1589" y="67" width="4354" height="1631"/></clipPath><clipPath id="clip8"><rect x="1589" y="67" width="4354" height="1631"/></clipPath><clipPath id="clip9"><rect x="1589" y="67" width="4354" height="1631"/></clipPath><clipPath id="clip10"><rect x="1589" y="67" width="4354" height="1631"/></clipPath><clipPath id="clip11"><rect x="1589" y="67" width="4354" height="1631"/></clipPath><clipPath id="clip12"><rect x="1589" y="67" width="4354" height="1631"/></clipPath><clipPath id="clip13"><rect x="1589" y="67" width="4354" height="1631"/></clipPath><clipPath id="clip14"><rect x="1589" y="67" width="4354" height="1631"/></clipPath><clipPath id="clip15"><rect x="1589" y="67" width="4354" height="1631"/></clipPath><clipPath id="clip16"><rect x="1589" y="67" width="4354" height="1631"/></clipPath><clipPath id="clip17"><rect x="1589" y="67" width="4354" height="1631"/></clipPath><clipPath id="clip18"><rect x="1589" y="67" width="4354" height="1631"/></clipPath><clipPath id="clip19"><rect x="1589" y="67" width="4354" height="1631"/></clipPath><clipPath id="clip20"><rect x="1589" y="67" width="4354" height="1631"/></clipPath><clipPath id="clip21"><rect x="1589" y="67" width="4354" height="1631"/></clipPath><clipPath id="clip22"><rect x="1589" y="67" width="4354" height="1631"/></clipPath><clipPath id="clip23"><rect x="1589" y="67" width="4354" height="1631"/></clipPath><clipPath id="clip24"><rect x="1589" y="67" width="4354" height="1631"/></clipPath><clipPath id="clip25"><rect x="1589" y="67" width="4354" height="1631"/></clipPath><clipPath id="clip26"><rect x="1589" y="67" width="4354" height="1631"/></clipPath><clipPath id="clip27"><rect x="1589" y="67" width="4354" height="1631"/></clipPath><clipPath id="clip28"><rect x="1589" y="67" width="4354" height="1631"/></clipPath><clipPath id="clip29"><rect x="1589" y="67" width="4354" height="1631"/></clipPath><clipPath id="clip30"><rect x="1589" y="67" width="4354" height="1631"/></clipPath><clipPath id="clip31"><rect x="1589" y="67" width="4354" height="1631"/></clipPath><clipPath id="clip32"><rect x="1589" y="67" width="4354" height="1631"/></clipPath><clipPath id="clip33"><rect x="1589" y="67" width="4354" height="1631"/></clipPath><clipPath id="clip34"><rect x="1589" y="67" width="4354" height="1631"/></clipPath><clipPath id="clip35"><rect x="1589" y="67" width="4354" height="1631"/></clipPath><clipPath id="clip36"><rect x="1589" y="67" width="4354" height="1631"/></clipPath><clipPath id="clip37"><rect x="1589" y="67" width="4354" height="1631"/></clipPath><clipPath id="clip38"><rect x="1589" y="67" width="4354" height="1631"/></clipPath><clipPath id="clip39"><rect x="1589" y="67" width="4354" height="1631"/></clipPath><clipPath id="clip40"><rect x="1589" y="67" width="4354" height="1631"/></clipPath><clipPath id="clip41"><rect x="1589" y="67" width="4354" height="1631"/></clipPath><clipPath id="clip42"><rect x="1589" y="67" width="4354" height="1631"/></clipPath><clipPath id="clip43"><rect x="1589" y="67" width="4354" height="1631"/></clipPath><clipPath id="clip44"><rect x="1589" y="67" width="4354" height="1631"/></clipPath><clipPath id="clip45"><rect x="1589" y="67" width="4354" height="1631"/></clipPath><clipPath id="clip46"><rect x="1589" y="67" width="4354" height="1631"/></clipPath><clipPath id="clip47"><rect x="1589" y="67" width="4354" height="1631"/></clipPath><clipPath id="clip48"><rect x="1589" y="67" width="4354" height="1631"/></clipPath><clipPath id="clip49"><rect x="1589" y="67" width="4354" height="1631"/></clipPath><clipPath id="clip50"><rect x="1589" y="67" width="4354" height="1631"/></clipPath><clipPath id="clip51"><rect x="1589" y="67" width="4354" height="1631"/></clipPath><clipPath id="clip52"><rect x="1589" y="67" width="4354" height="1631"/></clipPath><clipPath id="clip53"><rect x="1589" y="67" width="4354" height="1631"/></clipPath><clipPath id="clip54"><rect x="1589" y="67" width="4354" height="1631"/></clipPath><clipPath id="clip55"><rect x="1589" y="67" width="4354" height="1631"/></clipPath><clipPath id="clip56"><rect x="1589" y="67" width="4354" height="1631"/></clipPath><clipPath id="clip57"><rect x="1589" y="67" width="4354" height="1631"/></clipPath><clipPath id="clip58"><rect x="1589" y="67" width="4354" height="1631"/></clipPath><clipPath id="clip59"><rect x="1589" y="67" width="4354" height="1631"/></clipPath><clipPath id="clip60"><rect x="1589" y="67" width="4354" height="1631"/></clipPath><clipPath id="clip61"><rect x="1589" y="67" width="4354" height="1631"/></clipPath><clipPath id="clip62"><rect x="1589" y="67" width="4354" height="1631"/></clipPath><clipPath id="clip63"><rect x="1589" y="67" width="4354" height="1631"/></clipPath><clipPath id="clip64"><rect x="1589" y="67" width="4354" height="1631"/></clipPath><clipPath id="clip65"><rect x="1589" y="67" width="4354" height="1631"/></clipPath><clipPath id="clip66"><rect x="1589" y="67" width="4354" height="1631"/></clipPath><clipPath id="clip67"><rect x="1589" y="67" width="4354" height="1631"/></clipPath><clipPath id="clip68"><rect x="1589" y="67" width="4354" height="1631"/></clipPath><clipPath id="clip69"><rect x="1589" y="67" width="4354" height="1631"/></clipPath><clipPath id="clip70"><rect x="1589" y="67" width="4354" height="1631"/></clipPath><clipPath id="clip71"><rect x="1589" y="67" width="4354" height="1631"/></clipPath><clipPath id="clip72"><rect x="1589" y="67" width="4354" height="1631"/></clipPath><clipPath id="clip73"><rect x="1589" y="67" width="4354" height="1631"/></clipPath><clipPath id="clip74"><rect x="1589" y="67" width="4354" height="1631"/></clipPath><clipPath id="clip75"><rect x="1589" y="67" width="4354" height="1631"/></clipPath><clipPath id="clip76"><rect x="1589" y="67" width="4354" height="1631"/></clipPath><clipPath id="clip77"><rect x="1589" y="67" width="4354" height="1631"/></clipPath><clipPath id="clip78"><rect x="1589" y="67" width="4354" height="1631"/></clipPath><clipPath id="clip79"><rect x="1589" y="67" width="4354" height="1631"/></clipPath><clipPath id="clip80"><rect x="1589" y="67" width="4354" height="1631"/></clipPath><clipPath id="clip81"><rect x="1589" y="67" width="4354" height="1631"/></clipPath><clipPath id="clip82"><rect x="1589" y="67" width="4354" height="1631"/></clipPath><clipPath id="clip83"><rect x="1589" y="67" width="4354" height="1631"/></clipPath><clipPath id="clip84"><rect x="1589" y="67" width="4354" height="1631"/></clipPath><clipPath id="clip85"><rect x="1589" y="67" width="4354" height="1631"/></clipPath><clipPath id="clip86"><rect x="1589" y="67" width="4354" height="1631"/></clipPath><clipPath id="clip87"><rect x="1589" y="67" width="4354" height="1631"/></clipPath><clipPath id="clip88"><rect x="1589" y="67" width="4354" height="1631"/></clipPath><clipPath id="clip89"><rect x="1589" y="67" width="4354" height="1631"/></clipPath><clipPath id="clip90"><rect x="1589" y="67" width="4354" height="1631"/></clipPath><clipPath id="clip91"><rect x="1589" y="67" width="4354" height="1631"/></clipPath><clipPath id="clip92"><rect x="1589" y="67" width="4354" height="1631"/></clipPath><clipPath id="clip93"><rect x="1589" y="67" width="4354" height="1631"/></clipPath><clipPath id="clip94"><rect x="1589" y="67" width="4354" height="1631"/></clipPath><clipPath id="clip95"><rect x="1589" y="67" width="4354" height="1631"/></clipPath><clipPath id="clip96"><rect x="1589" y="67" width="4354" height="1631"/></clipPath><clipPath id="clip97"><rect x="1589" y="67" width="4354" height="1631"/></clipPath><clipPath id="clip98"><rect x="1589" y="67" width="4354" height="1631"/></clipPath><clipPath id="clip99"><rect x="1589" y="67" width="4354" height="1631"/></clipPath><clipPath id="clip100"><rect x="1589" y="67" width="4354" height="1631"/></clipPath><clipPath id="clip101"><rect x="1589" y="67" width="4354" height="1631"/></clipPath><clipPath id="clip102"><rect x="1589" y="67" width="4354" height="1631"/></clipPath><clipPath id="clip103"><rect x="1589" y="67" width="4354" height="1631"/></clipPath><clipPath id="clip104"><rect x="1589" y="67" width="4354" height="1631"/></clipPath><clipPath id="clip105"><rect x="1589" y="67" width="4354" height="1631"/></clipPath><clipPath id="clip106"><rect x="1589" y="67" width="4354" height="1631"/></clipPath><clipPath id="clip107"><rect x="1589" y="67" width="4354" height="1631"/></clipPath><clipPath id="clip108"><rect x="1589" y="67" width="4354" height="1631"/></clipPath><clipPath id="clip109"><rect x="1589" y="67" width="4354" height="1631"/></clipPath><clipPath id="clip110"><rect x="1589" y="67" width="4354" height="1631"/></clipPath><clipPath id="clip111"><rect x="1589" y="67" width="4354" height="1631"/></clipPath><clipPath id="clip112"><rect x="1589" y="67" width="4354" height="1631"/></clipPath><clipPath id="clip113"><rect x="1589" y="67" width="4354" height="1631"/></clipPath><clipPath id="clip114"><rect x="1589" y="67" width="4354" height="1631"/></clipPath><clipPath id="clip115"><rect x="1589" y="67" width="4354" height="1631"/></clipPath><clipPath id="clip116"><rect x="1589" y="67" width="4354" height="1631"/></clipPath><clipPath id="clip117"><rect x="1589" y="67" width="4354" height="1631"/></clipPath><clipPath id="clip118"><rect x="1589" y="67" width="4354" height="1631"/></clipPath><clipPath id="clip119"><rect x="1589" y="67" width="4354" height="1631"/></clipPath><clipPath id="clip120"><rect x="1589" y="67" width="4354" height="1631"/></clipPath><clipPath id="clip121"><rect x="1589" y="67" width="4354" height="1631"/></clipPath><clipPath id="clip122"><rect x="1589" y="67" width="4354" height="1631"/></clipPath><clipPath id="clip123"><rect x="1589" y="67" width="4354" height="1631"/></clipPath><clipPath id="clip124"><rect x="1589" y="67" width="4354" height="1631"/></clipPath><clipPath id="clip125"><rect x="1589" y="67" width="4354" height="1631"/></clipPath><clipPath id="clip126"><rect x="1589" y="67" width="4354" height="1631"/></clipPath><clipPath id="clip127"><rect x="1589" y="67" width="4354" height="1631"/></clipPath><clipPath id="clip128"><rect x="1589" y="67" width="4354" height="1631"/></clipPath></defs><g clip-path="url(#clip0)" transform="translate(-1589 -66)"><rect x="1590" y="67" width="4353" height="1631" fill="#FFFFFF"/><g clip-path="url(#clip1)"><path d="M1919.5 1041.53 5893.5 1041.53M1919.5 909.53 5893.5 909.53M1919.5 777.526 5893.5 777.526M1919.5 645.521 5893.5 645.521M1919.5 513.517 5893.5 513.517M1919.5 381.513 5893.5 381.513M1919.5 249.508 5893.5 249.508M1919.5 117.5 5893.5 117.5" stroke="#D9D9D9" stroke-width="3.4375" stroke-linejoin="round" stroke-miterlimit="10" fill="none"/></g><g clip-path="url(#clip2)"><path d="M1921.06 276.009 1988.07 276.009 1988.07 1173 1921.06 1173ZM1991.07 364.012 2057.07 364.012 2057.07 1173 1991.07 1173ZM2061.07 696.023 2127.07 696.023 2127.07 1173 2061.07 1173ZM2130.07 764.025 2197.07 764.025 2197.07 1173 2130.07 1173ZM2200.07 851.028 2267.07 851.028 2267.07 1173 2200.07 1173ZM2270.07 907.03 2336.08 907.03 2336.08 1173 2270.07 1173ZM2340.08 913.03 2406.08 913.03 2406.08 1173 2340.08 1173ZM2409.08 915.03 2476.08 915.03 2476.08 1173 2409.08 1173ZM2479.08 988.032 2545.08 988.032 2545.08 1173 2479.08 1173ZM2549.08 1004.03 2615.09 1004.03 2615.09 1173 2549.08 1173ZM2618.09 1024.03 2685.09 1024.03 2685.09 1173 2618.09 1173ZM2688.09 1032.03 2754.09 1032.03 2754.09 1173 2688.09 1173ZM2758.09 1047.03 2824.09 1047.03 2824.09 1173 2758.09 1173ZM2828.09 1056.03 2894.09 1056.03 2894.09 1173 2828.09 1173ZM2897.1 1060.03 2964.1 1060.03 2964.1 1173 2897.1 1173ZM2967.1 1064.03 3033.1 1064.03 3033.1 1173 2967.1 1173ZM3037.1 1070.04 3103.1 1070.04 3103.1 1173 3037.1 1173ZM3106.1 1071.04 3173.1 1071.04 3173.1 1173 3106.1 1173ZM3176.1 1077.04 3242.11 1077.04 3242.11 1173 3176.1 1173ZM3246.11 1083.04 3312.11 1083.04 3312.11 1173 3246.11 1173ZM3315.11 1098.04 3382.11 1098.04 3382.11 1173 3315.11 1173ZM3385.11 1101.04 3452.11 1101.04 3452.11 1173 3385.11 1173ZM3455.11 1105.04 3521.12 1105.04 3521.12 1173 3455.11 1173ZM3525.12 1105.04 3591.12 1105.04 3591.12 1173 3525.12 1173ZM3594.12 1106.04 3661.12 1106.04 3661.12 1173 3594.12 1173ZM3664.12 1108.04 3730.12 1108.04 3730.12 1173 3664.12 1173ZM3734.12 1112.04 3800.12 1112.04 3800.12 1173 3734.12 1173ZM3803.12 1114.04 3870.13 1114.04 3870.13 1173 3803.12 1173ZM3873.13 1114.04 3939.13 1114.04 3939.13 1173 3873.13 1173ZM3943.13 1115.04 4009.13 1115.04 4009.13 1173 3943.13 1173ZM4012.13 1116.04 4079.13 1116.04 4079.13 1173 4012.13 1173ZM4082.13 1118.04 4149.14 1118.04 4149.14 1173 4082.13 1173ZM4152.14 1120.04 4218.14 1120.04 4218.14 1173 4152.14 1173ZM4222.14 1123.04 4288.14 1123.04 4288.14 1173 4222.14 1173ZM4291.14 1124.04 4358.14 1124.04 4358.14 1173 4291.14 1173ZM4361.14 1127.04 4427.15 1127.04 4427.15 1173 4361.14 1173ZM4431.15 1129.04 4497.15 1129.04 4497.15 1173 4431.15 1173ZM4500.15 1129.04 4567.15 1129.04 4567.15 1173 4500.15 1173ZM4570.15 1138.04 4636.15 1138.04 4636.15 1173 4570.15 1173ZM4640.15 1143.04 4706.15 1143.04 4706.15 1173 4640.15 1173ZM4710.15 1145.04 4776.16 1145.04 4776.16 1173 4710.15 1173ZM4779.16 1146.04 4846.16 1146.04 4846.16 1173 4779.16 1173ZM4849.16 1147.04 4915.16 1147.04 4915.16 1173 4849.16 1173ZM4919.16 1147.04 4985.16 1147.04 4985.16 1173 4919.16 1173ZM4988.16 1149.04 5055.17 1149.04 5055.17 1173 4988.16 1173ZM5058.17 1150.04 5124.17 1150.04 5124.17 1173 5058.17 1173ZM5128.17 1151.04 5194.17 1151.04 5194.17 1173 5128.17 1173ZM5197.17 1154.04 5264.17 1154.04 5264.17 1173 5197.17 1173ZM5267.17 1154.04 5334.17 1154.04 5334.17 1173 5267.17 1173ZM5337.18 1157.04 5403.18 1157.04 5403.18 1173 5337.18 1173ZM5407.18 1161.04 5473.18 1161.04 5473.18 1173 5407.18 1173ZM5476.18 1166.04 5543.18 1166.04 5543.18 1173 5476.18 1173ZM5546.18 1167.04 5612.18 1167.04 5612.18 1173 5546.18 1173ZM5616.18 1168.04 5682.19 1168.04 5682.19 1173 5616.18 1173ZM5685.19 1171.04 5752.19 1171.04 5752.19 1173 5685.19 1173ZM5755.19 1172.04 5821.19 1172.04 5821.19 1173 5755.19 1173ZM5825.19 1172 5891.19 1172 5891.19 1173 5825.19 1173Z" fill="#4472C4"/></g><g clip-path="url(#clip3)"><path d="M1919.5 1173.5 5893.5 1173.5" stroke="#D9D9D9" stroke-width="3.4375" stroke-linejoin="round" stroke-miterlimit="10" fill="none" fill-rule="evenodd"/></g><g clip-path="url(#clip4)"><text fill="#404040" font-family="Verdana,Verdana_MSFontService,sans-serif" font-weight="400" font-size="41" transform="matrix(6.12323e-17 -1 1 6.12323e-17 1970.54 249)">13.59%</text></g><g clip-path="url(#clip5)"><text fill="#404040" font-family="Verdana,Verdana_MSFontService,sans-serif" font-weight="400" font-size="41" transform="matrix(6.12323e-17 -1 1 6.12323e-17 2040.25 337)">12.26%</text></g><g clip-path="url(#clip6)"><text fill="#404040" font-family="Verdana,Verdana_MSFontService,sans-serif" font-weight="400" font-size="41" transform="matrix(6.12323e-17 -1 1 6.12323e-17 2109.95 668)">7.24%</text></g><g clip-path="url(#clip7)"><text fill="#404040" font-family="Verdana,Verdana_MSFontService,sans-serif" font-weight="400" font-size="41" transform="matrix(6.12323e-17 -1 1 6.12323e-17 2179.66 737)">6.20%</text></g><g clip-path="url(#clip8)"><text fill="#404040" font-family="Verdana,Verdana_MSFontService,sans-serif" font-weight="400" font-size="41" transform="matrix(6.12323e-17 -1 1 6.12323e-17 2249.37 823)">4.89%</text></g><g clip-path="url(#clip9)"><text fill="#404040" font-family="Verdana,Verdana_MSFontService,sans-serif" font-weight="400" font-size="41" transform="matrix(6.12323e-17 -1 1 6.12323e-17 2319.07 880)">4.03%</text></g><g clip-path="url(#clip10)"><text fill="#404040" font-family="Verdana,Verdana_MSFontService,sans-serif" font-weight="400" font-size="41" transform="matrix(6.12323e-17 -1 1 6.12323e-17 2388.78 885)">3.95%</text></g><g clip-path="url(#clip11)"><text fill="#404040" font-family="Verdana,Verdana_MSFontService,sans-serif" font-weight="400" font-size="41" transform="matrix(6.12323e-17 -1 1 6.12323e-17 2458.48 887)">3.92%</text></g><g clip-path="url(#clip12)"><text fill="#404040" font-family="Verdana,Verdana_MSFontService,sans-serif" font-weight="400" font-size="41" transform="matrix(6.12323e-17 -1 1 6.12323e-17 2528.19 960)">2.82%</text></g><g clip-path="url(#clip13)"><text fill="#404040" font-family="Verdana,Verdana_MSFontService,sans-serif" font-weight="400" font-size="41" transform="matrix(6.12323e-17 -1 1 6.12323e-17 2597.9 977)">2.57%</text></g><g clip-path="url(#clip14)"><text fill="#404040" font-family="Verdana,Verdana_MSFontService,sans-serif" font-weight="400" font-size="41" transform="matrix(6.12323e-17 -1 1 6.12323e-17 2667.6 996)">2.27%</text></g><g clip-path="url(#clip15)"><text fill="#404040" font-family="Verdana,Verdana_MSFontService,sans-serif" font-weight="400" font-size="41" transform="matrix(6.12323e-17 -1 1 6.12323e-17 2737.31 1004)">2.15%</text></g><g clip-path="url(#clip16)"><text fill="#404040" font-family="Verdana,Verdana_MSFontService,sans-serif" font-weight="400" font-size="41" transform="matrix(6.12323e-17 -1 1 6.12323e-17 2807.02 1020)">1.91%</text></g><g clip-path="url(#clip17)"><text fill="#404040" font-family="Verdana,Verdana_MSFontService,sans-serif" font-weight="400" font-size="41" transform="matrix(6.12323e-17 -1 1 6.12323e-17 2876.72 1028)">1.78%</text></g><g clip-path="url(#clip18)"><text fill="#404040" font-family="Verdana,Verdana_MSFontService,sans-serif" font-weight="400" font-size="41" transform="matrix(6.12323e-17 -1 1 6.12323e-17 2946.43 1032)">1.72%</text></g><g clip-path="url(#clip19)"><text fill="#404040" font-family="Verdana,Verdana_MSFontService,sans-serif" font-weight="400" font-size="41" transform="matrix(6.12323e-17 -1 1 6.12323e-17 3016.13 1037)">1.65%</text></g><g clip-path="url(#clip20)"><text fill="#404040" font-family="Verdana,Verdana_MSFontService,sans-serif" font-weight="400" font-size="41" transform="matrix(6.12323e-17 -1 1 6.12323e-17 3085.84 1043)">1.56%</text></g><g clip-path="url(#clip21)"><text fill="#404040" font-family="Verdana,Verdana_MSFontService,sans-serif" font-weight="400" font-size="41" transform="matrix(6.12323e-17 -1 1 6.12323e-17 3155.55 1043)">1.55%</text></g><g clip-path="url(#clip22)"><text fill="#404040" font-family="Verdana,Verdana_MSFontService,sans-serif" font-weight="400" font-size="41" transform="matrix(6.12323e-17 -1 1 6.12323e-17 3225.25 1049)">1.47%</text></g><g clip-path="url(#clip23)"><text fill="#404040" font-family="Verdana,Verdana_MSFontService,sans-serif" font-weight="400" font-size="41" transform="matrix(6.12323e-17 -1 1 6.12323e-17 3294.96 1056)">1.37%</text></g><g clip-path="url(#clip24)"><text fill="#404040" font-family="Verdana,Verdana_MSFontService,sans-serif" font-weight="400" font-size="41" transform="matrix(6.12323e-17 -1 1 6.12323e-17 3364.67 1071)">1.14%</text></g><g clip-path="url(#clip25)"><text fill="#404040" font-family="Verdana,Verdana_MSFontService,sans-serif" font-weight="400" font-size="41" transform="matrix(6.12323e-17 -1 1 6.12323e-17 3434.37 1074)">1.09%</text></g><g clip-path="url(#clip26)"><text fill="#404040" font-family="Verdana,Verdana_MSFontService,sans-serif" font-weight="400" font-size="41" transform="matrix(6.12323e-17 -1 1 6.12323e-17 3504.08 1077)">1.04%</text></g><g clip-path="url(#clip27)"><text fill="#404040" font-family="Verdana,Verdana_MSFontService,sans-serif" font-weight="400" font-size="41" transform="matrix(6.12323e-17 -1 1 6.12323e-17 3573.79 1078)">1.03%</text></g><g clip-path="url(#clip28)"><text fill="#404040" font-family="Verdana,Verdana_MSFontService,sans-serif" font-weight="400" font-size="41" transform="matrix(6.12323e-17 -1 1 6.12323e-17 3643.49 1079)">1.02%</text></g><g clip-path="url(#clip29)"><text fill="#404040" font-family="Verdana,Verdana_MSFontService,sans-serif" font-weight="400" font-size="41" transform="matrix(6.12323e-17 -1 1 6.12323e-17 3713.2 1081)">0.99%</text></g><g clip-path="url(#clip30)"><text fill="#404040" font-family="Verdana,Verdana_MSFontService,sans-serif" font-weight="400" font-size="41" transform="matrix(6.12323e-17 -1 1 6.12323e-17 3782.9 1084)">0.93%</text></g><g clip-path="url(#clip31)"><text fill="#404040" font-family="Verdana,Verdana_MSFontService,sans-serif" font-weight="400" font-size="41" transform="matrix(6.12323e-17 -1 1 6.12323e-17 3852.61 1086)">0.91%</text></g><g clip-path="url(#clip32)"><text fill="#404040" font-family="Verdana,Verdana_MSFontService,sans-serif" font-weight="400" font-size="41" transform="matrix(6.12323e-17 -1 1 6.12323e-17 3922.32 1087)">0.90%</text></g><g clip-path="url(#clip33)"><text fill="#404040" font-family="Verdana,Verdana_MSFontService,sans-serif" font-weight="400" font-size="41" transform="matrix(6.12323e-17 -1 1 6.12323e-17 3992.02 1087)">0.89%</text></g><g clip-path="url(#clip34)"><text fill="#404040" font-family="Verdana,Verdana_MSFontService,sans-serif" font-weight="400" font-size="41" transform="matrix(6.12323e-17 -1 1 6.12323e-17 4061.73 1088)">0.87%</text></g><g clip-path="url(#clip35)"><text fill="#404040" font-family="Verdana,Verdana_MSFontService,sans-serif" font-weight="400" font-size="41" transform="matrix(6.12323e-17 -1 1 6.12323e-17 4131.44 1090)">0.84%</text></g><g clip-path="url(#clip36)"><text fill="#404040" font-family="Verdana,Verdana_MSFontService,sans-serif" font-weight="400" font-size="41" transform="matrix(6.12323e-17 -1 1 6.12323e-17 4201.14 1092)">0.81%</text></g><g clip-path="url(#clip37)"><text fill="#404040" font-family="Verdana,Verdana_MSFontService,sans-serif" font-weight="400" font-size="41" transform="matrix(6.12323e-17 -1 1 6.12323e-17 4270.85 1095)">0.77%</text></g><g clip-path="url(#clip38)"><text fill="#404040" font-family="Verdana,Verdana_MSFontService,sans-serif" font-weight="400" font-size="41" transform="matrix(6.12323e-17 -1 1 6.12323e-17 4340.56 1096)">0.75%</text></g><g clip-path="url(#clip39)"><text fill="#404040" font-family="Verdana,Verdana_MSFontService,sans-serif" font-weight="400" font-size="41" transform="matrix(6.12323e-17 -1 1 6.12323e-17 4410.26 1099)">0.71%</text></g><g clip-path="url(#clip40)"><text fill="#404040" font-family="Verdana,Verdana_MSFontService,sans-serif" font-weight="400" font-size="41" transform="matrix(6.12323e-17 -1 1 6.12323e-17 4479.97 1101)">0.67%</text></g><g clip-path="url(#clip41)"><text fill="#404040" font-family="Verdana,Verdana_MSFontService,sans-serif" font-weight="400" font-size="41" transform="matrix(6.12323e-17 -1 1 6.12323e-17 4549.67 1102)">0.67%</text></g><g clip-path="url(#clip42)"><text fill="#404040" font-family="Verdana,Verdana_MSFontService,sans-serif" font-weight="400" font-size="41" transform="matrix(6.12323e-17 -1 1 6.12323e-17 4619.38 1110)">0.54%</text></g><g clip-path="url(#clip43)"><text fill="#404040" font-family="Verdana,Verdana_MSFontService,sans-serif" font-weight="400" font-size="41" transform="matrix(6.12323e-17 -1 1 6.12323e-17 4689.09 1115)">0.47%</text></g><g clip-path="url(#clip44)"><text fill="#404040" font-family="Verdana,Verdana_MSFontService,sans-serif" font-weight="400" font-size="41" transform="matrix(6.12323e-17 -1 1 6.12323e-17 4758.79 1118)">0.42%</text></g><g clip-path="url(#clip45)"><text fill="#404040" font-family="Verdana,Verdana_MSFontService,sans-serif" font-weight="400" font-size="41" transform="matrix(6.12323e-17 -1 1 6.12323e-17 4828.5 1119)">0.41%</text></g><g clip-path="url(#clip46)"><text fill="#404040" font-family="Verdana,Verdana_MSFontService,sans-serif" font-weight="400" font-size="41" transform="matrix(6.12323e-17 -1 1 6.12323e-17 4898.21 1119)">0.40%</text></g><g clip-path="url(#clip47)"><text fill="#404040" font-family="Verdana,Verdana_MSFontService,sans-serif" font-weight="400" font-size="41" transform="matrix(6.12323e-17 -1 1 6.12323e-17 4967.91 1120)">0.40%</text></g><g clip-path="url(#clip48)"><text fill="#404040" font-family="Verdana,Verdana_MSFontService,sans-serif" font-weight="400" font-size="41" transform="matrix(6.12323e-17 -1 1 6.12323e-17 5037.62 1121)">0.37%</text></g><g clip-path="url(#clip49)"><text fill="#404040" font-family="Verdana,Verdana_MSFontService,sans-serif" font-weight="400" font-size="41" transform="matrix(6.12323e-17 -1 1 6.12323e-17 5107.33 1122)">0.36%</text></g><g clip-path="url(#clip50)"><text fill="#404040" font-family="Verdana,Verdana_MSFontService,sans-serif" font-weight="400" font-size="41" transform="matrix(6.12323e-17 -1 1 6.12323e-17 5177.03 1123)">0.34%</text></g><g clip-path="url(#clip51)"><text fill="#404040" font-family="Verdana,Verdana_MSFontService,sans-serif" font-weight="400" font-size="41" transform="matrix(6.12323e-17 -1 1 6.12323e-17 5246.74 1127)">0.29%</text></g><g clip-path="url(#clip52)"><text fill="#404040" font-family="Verdana,Verdana_MSFontService,sans-serif" font-weight="400" font-size="41" transform="matrix(6.12323e-17 -1 1 6.12323e-17 5316.44 1127)">0.29%</text></g><g clip-path="url(#clip53)"><text fill="#404040" font-family="Verdana,Verdana_MSFontService,sans-serif" font-weight="400" font-size="41" transform="matrix(6.12323e-17 -1 1 6.12323e-17 5386.15 1129)">0.25%</text></g><g clip-path="url(#clip54)"><text fill="#404040" font-family="Verdana,Verdana_MSFontService,sans-serif" font-weight="400" font-size="41" transform="matrix(6.12323e-17 -1 1 6.12323e-17 5455.86 1133)">0.19%</text></g><g clip-path="url(#clip55)"><text fill="#404040" font-family="Verdana,Verdana_MSFontService,sans-serif" font-weight="400" font-size="41" transform="matrix(6.12323e-17 -1 1 6.12323e-17 5525.56 1138)">0.11%</text></g><g clip-path="url(#clip56)"><text fill="#404040" font-family="Verdana,Verdana_MSFontService,sans-serif" font-weight="400" font-size="41" transform="matrix(6.12323e-17 -1 1 6.12323e-17 5595.27 1140)">0.09%</text></g><g clip-path="url(#clip57)"><text fill="#404040" font-family="Verdana,Verdana_MSFontService,sans-serif" font-weight="400" font-size="41" transform="matrix(6.12323e-17 -1 1 6.12323e-17 5664.98 1141)">0.08%</text></g><g clip-path="url(#clip58)"><text fill="#404040" font-family="Verdana,Verdana_MSFontService,sans-serif" font-weight="400" font-size="41" transform="matrix(6.12323e-17 -1 1 6.12323e-17 5734.68 1144)">0.03%</text></g><g clip-path="url(#clip59)"><text fill="#404040" font-family="Verdana,Verdana_MSFontService,sans-serif" font-weight="400" font-size="41" transform="matrix(6.12323e-17 -1 1 6.12323e-17 5804.39 1145)">0.02%</text></g><g clip-path="url(#clip60)"><text fill="#404040" font-family="Verdana,Verdana_MSFontService,sans-serif" font-weight="400" font-size="41" transform="matrix(6.12323e-17 -1 1 6.12323e-17 5874.09 1146)">0.00%</text></g><g clip-path="url(#clip61)"><text fill="#595959" font-family="Verdana,Verdana_MSFontService,sans-serif" font-weight="400" font-size="41" transform="matrix(1 0 0 1 1742.81 1187)">0.00%</text></g><g clip-path="url(#clip62)"><text fill="#595959" font-family="Verdana,Verdana_MSFontService,sans-serif" font-weight="400" font-size="41" transform="matrix(1 0 0 1 1742.81 1055)">2.00%</text></g><g clip-path="url(#clip63)"><text fill="#595959" font-family="Verdana,Verdana_MSFontService,sans-serif" font-weight="400" font-size="41" transform="matrix(1 0 0 1 1742.81 923)">4.00%</text></g><g clip-path="url(#clip64)"><text fill="#595959" font-family="Verdana,Verdana_MSFontService,sans-serif" font-weight="400" font-size="41" transform="matrix(1 0 0 1 1742.81 791)">6.00%</text></g><g clip-path="url(#clip65)"><text fill="#595959" font-family="Verdana,Verdana_MSFontService,sans-serif" font-weight="400" font-size="41" transform="matrix(1 0 0 1 1742.81 659)">8.00%</text></g><g clip-path="url(#clip66)"><text fill="#595959" font-family="Verdana,Verdana_MSFontService,sans-serif" font-weight="400" font-size="41" transform="matrix(1 0 0 1 1716.6 527)">10.00%</text></g><g clip-path="url(#clip67)"><text fill="#595959" font-family="Verdana,Verdana_MSFontService,sans-serif" font-weight="400" font-size="41" transform="matrix(1 0 0 1 1716.6 395)">12.00%</text></g><g clip-path="url(#clip68)"><text fill="#595959" font-family="Verdana,Verdana_MSFontService,sans-serif" font-weight="400" font-size="41" transform="matrix(1 0 0 1 1716.6 263)">14.00%</text></g><g clip-path="url(#clip69)"><text fill="#595959" font-family="Verdana,Verdana_MSFontService,sans-serif" font-weight="400" font-size="41" transform="matrix(1 0 0 1 1716.6 131)">16.00%</text></g><g clip-path="url(#clip70)"><text fill="#595959" font-family="Verdana,Verdana_MSFontService,sans-serif" font-weight="400" font-size="41" transform="matrix(6.12323e-17 -1 1 6.12323e-17 1970.54 1271)">sky</text></g><g clip-path="url(#clip71)"><text fill="#595959" font-family="Verdana,Verdana_MSFontService,sans-serif" font-weight="400" font-size="41" transform="matrix(6.12323e-17 -1 1 6.12323e-17 2040.25 1420)">vegetation</text></g><g clip-path="url(#clip72)"><text fill="#595959" font-family="Verdana,Verdana_MSFontService,sans-serif" font-weight="400" font-size="41" transform="matrix(6.12323e-17 -1 1 6.12323e-17 2109.95 1339)">terrain</text></g><g clip-path="url(#clip73)"><text fill="#595959" font-family="Verdana,Verdana_MSFontService,sans-serif" font-weight="400" font-size="41" transform="matrix(6.12323e-17 -1 1 6.12323e-17 2179.66 1364)">building</text></g><g clip-path="url(#clip74)"><text fill="#595959" font-family="Verdana,Verdana_MSFontService,sans-serif" font-weight="400" font-size="41" transform="matrix(6.12323e-17 -1 1 6.12323e-17 2249.37 1444)">background</text></g><g clip-path="url(#clip75)"><text fill="#595959" font-family="Verdana,Verdana_MSFontService,sans-serif" font-weight="400" font-size="41" transform="matrix(6.12323e-17 -1 1 6.12323e-17 2319.07 1272)">sea</text></g><g clip-path="url(#clip76)"><text fill="#595959" font-family="Verdana,Verdana_MSFontService,sans-serif" font-weight="400" font-size="41" transform="matrix(6.12323e-17 -1 1 6.12323e-17 2388.78 1342)">person</text></g><g clip-path="url(#clip77)"><text fill="#595959" font-family="Verdana,Verdana_MSFontService,sans-serif" font-weight="400" font-size="41" transform="matrix(6.12323e-17 -1 1 6.12323e-17 2458.49 1288)">pole</text></g><g clip-path="url(#clip78)"><text fill="#595959" font-family="Verdana,Verdana_MSFontService,sans-serif" font-weight="400" font-size="41" transform="matrix(6.12323e-17 -1 1 6.12323e-17 2528.19 1312)">fence</text></g><g clip-path="url(#clip79)"><text fill="#595959" font-family="Verdana,Verdana_MSFontService,sans-serif" font-weight="400" font-size="41" transform="matrix(6.12323e-17 -1 1 6.12323e-17 2597.9 1297)">river</text></g><g clip-path="url(#clip80)"><text fill="#595959" font-family="Verdana,Verdana_MSFontService,sans-serif" font-weight="400" font-size="41" transform="matrix(6.12323e-17 -1 1 6.12323e-17 2667.61 1294)">road</text></g><g clip-path="url(#clip81)"><text fill="#595959" font-family="Verdana,Verdana_MSFontService,sans-serif" font-weight="400" font-size="41" transform="matrix(6.12323e-17 -1 1 6.12323e-17 2737.31 1293)">boat</text></g><g clip-path="url(#clip82)"><text fill="#595959" font-family="Verdana,Verdana_MSFontService,sans-serif" font-weight="400" font-size="41" transform="matrix(6.12323e-17 -1 1 6.12323e-17 2807.02 1332)">bridge</text></g><g clip-path="url(#clip83)"><text fill="#595959" font-family="Verdana,Verdana_MSFontService,sans-serif" font-weight="400" font-size="41" transform="matrix(6.12323e-17 -1 1 6.12323e-17 2876.72 1307)">snow</text></g><g clip-path="url(#clip84)"><text fill="#595959" font-family="Verdana,Verdana_MSFontService,sans-serif" font-weight="400" font-size="41" transform="matrix(6.12323e-17 -1 1 6.12323e-17 2946.43 1280)">pier</text></g><g clip-path="url(#clip85)"><text fill="#595959" font-family="Verdana,Verdana_MSFontService,sans-serif" font-weight="400" font-size="41" transform="matrix(6.12323e-17 -1 1 6.12323e-17 3016.14 1378)">sidewalk</text></g><g clip-path="url(#clip86)"><text fill="#595959" font-family="Verdana,Verdana_MSFontService,sans-serif" font-weight="400" font-size="41" transform="matrix(6.12323e-17 -1 1 6.12323e-17 3085.84 1274)">cliff</text></g><g clip-path="url(#clip87)"><text fill="#595959" font-family="Verdana,Verdana_MSFontService,sans-serif" font-weight="400" font-size="41" transform="matrix(6.12323e-17 -1 1 6.12323e-17 3155.55 1265)">car</text></g><g clip-path="url(#clip88)"><text fill="#595959" font-family="Verdana,Verdana_MSFontService,sans-serif" font-weight="400" font-size="41" transform="matrix(6.12323e-17 -1 1 6.12323e-17 3225.26 1389)">shoreline</text></g><g clip-path="url(#clip89)"><text fill="#595959" font-family="Verdana,Verdana_MSFontService,sans-serif" font-weight="400" font-size="41" transform="matrix(6.12323e-17 -1 1 6.12323e-17 3294.96 1310)">canal</text></g><g clip-path="url(#clip90)"><text fill="#595959" font-family="Verdana,Verdana_MSFontService,sans-serif" font-weight="400" font-size="41" transform="matrix(6.12323e-17 -1 1 6.12323e-17 3364.67 1363)">wetland</text></g><g clip-path="url(#clip91)"><text fill="#595959" font-family="Verdana,Verdana_MSFontService,sans-serif" font-weight="400" font-size="41" transform="matrix(6.12323e-17 -1 1 6.12323e-17 3434.37 1435)">breakwater</text></g><g clip-path="url(#clip92)"><text fill="#595959" font-family="Verdana,Verdana_MSFontService,sans-serif" font-weight="400" font-size="41" transform="matrix(6.12323e-17 -1 1 6.12323e-17 3504.08 1310)">levee</text></g><g clip-path="url(#clip93)"><text fill="#595959" font-family="Verdana,Verdana_MSFontService,sans-serif" font-weight="400" font-size="41" transform="matrix(6.12323e-17 -1 1 6.12323e-17 3573.79 1282)">wall</text></g><g clip-path="url(#clip94)"><text fill="#595959" font-family="Verdana,Verdana_MSFontService,sans-serif" font-weight="400" font-size="41" transform="matrix(6.12323e-17 -1 1 6.12323e-17 3643.49 1385)">reservoir</text></g><g clip-path="url(#clip95)"><text fill="#595959" font-family="Verdana,Verdana_MSFontService,sans-serif" font-weight="400" font-size="41" transform="matrix(6.12323e-17 -1 1 6.12323e-17 3713.2 1286)">lake</text></g><g clip-path="url(#clip96)"><text fill="#595959" font-family="Verdana,Verdana_MSFontService,sans-serif" font-weight="400" font-size="41" transform="matrix(6.12323e-17 -1 1 6.12323e-17 3782.91 1331)">marsh</text></g><g clip-path="url(#clip97)"><text fill="#595959" font-family="Verdana,Verdana_MSFontService,sans-serif" font-weight="400" font-size="41" transform="matrix(6.12323e-17 -1 1 6.12323e-17 3852.61 1292)">dam</text></g><g clip-path="url(#clip98)"><text fill="#595959" font-family="Verdana,Verdana_MSFontService,sans-serif" font-weight="400" font-size="41" transform="matrix(6.12323e-17 -1 1 6.12323e-17 3922.32 1365)">spillway</text></g><g clip-path="url(#clip99)"><text fill="#595959" font-family="Verdana,Verdana_MSFontService,sans-serif" font-weight="400" font-size="41" transform="matrix(6.12323e-17 -1 1 6.12323e-17 3992.03 1340)">puddle</text></g><g clip-path="url(#clip100)"><text fill="#595959" font-family="Verdana,Verdana_MSFontService,sans-serif" font-weight="400" font-size="41" transform="matrix(6.12323e-17 -1 1 6.12323e-17 4061.73 1423)">hot_spring</text></g><g clip-path="url(#clip101)"><text fill="#595959" font-family="Verdana,Verdana_MSFontService,sans-serif" font-weight="400" font-size="41" transform="matrix(6.12323e-17 -1 1 6.12323e-17 4131.44 1328)">rapids</text></g><g clip-path="url(#clip102)"><text fill="#595959" font-family="Verdana,Verdana_MSFontService,sans-serif" font-weight="400" font-size="41" transform="matrix(6.12323e-17 -1 1 6.12323e-17 4201.14 1286)">ship</text></g><g clip-path="url(#clip103)"><text fill="#595959" font-family="Verdana,Verdana_MSFontService,sans-serif" font-weight="400" font-size="41" transform="matrix(6.12323e-17 -1 1 6.12323e-17 4270.85 1432)">traffic_sign</text></g><g clip-path="url(#clip104)"><text fill="#595959" font-family="Verdana,Verdana_MSFontService,sans-serif" font-weight="400" font-size="41" transform="matrix(6.12323e-17 -1 1 6.12323e-17 4340.56 1380)">waterfall</text></g><g clip-path="url(#clip105)"><text fill="#595959" font-family="Verdana,Verdana_MSFontService,sans-serif" font-weight="400" font-size="41" transform="matrix(6.12323e-17 -1 1 6.12323e-17 4410.26 1415)">lighthouse</text></g><g clip-path="url(#clip106)"><text fill="#595959" font-family="Verdana,Verdana_MSFontService,sans-serif" font-weight="400" font-size="41" transform="matrix(6.12323e-17 -1 1 6.12323e-17 4479.97 1307)">truck</text></g><g clip-path="url(#clip107)"><text fill="#595959" font-family="Verdana,Verdana_MSFontService,sans-serif" font-weight="400" font-size="41" transform="matrix(6.12323e-17 -1 1 6.12323e-17 4549.68 1461)">water_tower</text></g><g clip-path="url(#clip108)"><text fill="#595959" font-family="Verdana,Verdana_MSFontService,sans-serif" font-weight="400" font-size="41" transform="matrix(6.12323e-17 -1 1 6.12323e-17 4619.38 1303)">flood</text></g><g clip-path="url(#clip109)"><text fill="#595959" font-family="Verdana,Verdana_MSFontService,sans-serif" font-weight="400" font-size="41" transform="matrix(6.12323e-17 -1 1 6.12323e-17 4689.09 1298)">fjord</text></g><g clip-path="url(#clip110)"><text fill="#595959" font-family="Verdana,Verdana_MSFontService,sans-serif" font-weight="400" font-size="41" transform="matrix(6.12323e-17 -1 1 6.12323e-17 4758.8 1302)">ditch</text></g><g clip-path="url(#clip111)"><text fill="#595959" font-family="Verdana,Verdana_MSFontService,sans-serif" font-weight="400" font-size="41" transform="matrix(6.12323e-17 -1 1 6.12323e-17 4828.5 1359)">glaciers</text></g><g clip-path="url(#clip112)"><text fill="#595959" font-family="Verdana,Verdana_MSFontService,sans-serif" font-weight="400" font-size="41" transform="matrix(6.12323e-17 -1 1 6.12323e-17 4898.21 1571)">offshore_platform</text></g><g clip-path="url(#clip113)"><text fill="#595959" font-family="Verdana,Verdana_MSFontService,sans-serif" font-weight="400" font-size="41" transform="matrix(6.12323e-17 -1 1 6.12323e-17 4967.91 1362)">pipeline</text></g><g clip-path="url(#clip114)"><text fill="#595959" font-family="Verdana,Verdana_MSFontService,sans-serif" font-weight="400" font-size="41" transform="matrix(6.12323e-17 -1 1 6.12323e-17 5037.62 1341)">bicycle</text></g><g clip-path="url(#clip115)"><text fill="#595959" font-family="Verdana,Verdana_MSFontService,sans-serif" font-weight="400" font-size="41" transform="matrix(6.12323e-17 -1 1 6.12323e-17 5107.33 1409)">mangrove</text></g><g clip-path="url(#clip116)"><text fill="#595959" font-family="Verdana,Verdana_MSFontService,sans-serif" font-weight="400" font-size="41" transform="matrix(6.12323e-17 -1 1 6.12323e-17 5177.03 1343)">culvert</text></g><g clip-path="url(#clip117)"><text fill="#595959" font-family="Verdana,Verdana_MSFontService,sans-serif" font-weight="400" font-size="41" transform="matrix(6.12323e-17 -1 1 6.12323e-17 5246.74 1467)">cypress_tree</text></g><g clip-path="url(#clip118)"><text fill="#595959" font-family="Verdana,Verdana_MSFontService,sans-serif" font-weight="400" font-size="41" transform="matrix(6.12323e-17 -1 1 6.12323e-17 5316.45 1524)">swimming_pool</text></g><g clip-path="url(#clip119)"><text fill="#595959" font-family="Verdana,Verdana_MSFontService,sans-serif" font-weight="400" font-size="41" transform="matrix(6.12323e-17 -1 1 6.12323e-17 5386.15 1383)">umbrella</text></g><g clip-path="url(#clip120)"><text fill="#595959" font-family="Verdana,Verdana_MSFontService,sans-serif" font-weight="400" font-size="41" transform="matrix(6.12323e-17 -1 1 6.12323e-17 5455.86 1425)">water_well</text></g><g clip-path="url(#clip121)"><text fill="#595959" font-family="Verdana,Verdana_MSFontService,sans-serif" font-weight="400" font-size="41" transform="matrix(6.12323e-17 -1 1 6.12323e-17 5525.56 1297)">train</text></g><g clip-path="url(#clip122)"><text fill="#595959" font-family="Verdana,Verdana_MSFontService,sans-serif" font-weight="400" font-size="41" transform="matrix(6.12323e-17 -1 1 6.12323e-17 5595.27 1425)">river_delta</text></g><g clip-path="url(#clip123)"><text fill="#595959" font-family="Verdana,Verdana_MSFontService,sans-serif" font-weight="400" font-size="41" transform="matrix(6.12323e-17 -1 1 6.12323e-17 5664.98 1274)">bus</text></g><g clip-path="url(#clip124)"><text fill="#595959" font-family="Verdana,Verdana_MSFontService,sans-serif" font-weight="400" font-size="41" transform="matrix(6.12323e-17 -1 1 6.12323e-17 5734.68 1428)">motorcycle</text></g><g clip-path="url(#clip125)"><text fill="#595959" font-family="Verdana,Verdana_MSFontService,sans-serif" font-weight="400" font-size="41" transform="matrix(6.12323e-17 -1 1 6.12323e-17 5804.39 1456)">fire_hydrant</text></g><g clip-path="url(#clip126)"><text fill="#595959" font-family="Verdana,Verdana_MSFontService,sans-serif" font-weight="400" font-size="41" transform="matrix(6.12323e-17 -1 1 6.12323e-17 5874.1 1506)">parking_meter</text></g><g clip-path="url(#clip127)"><text fill="#595959" font-family="Verdana,Verdana_MSFontService,sans-serif" font-weight="400" font-size="46" transform="matrix(6.12323e-17 -1 1 6.12323e-17 1693.13 841)">Number of Pixels</text></g><g clip-path="url(#clip128)"><text fill="#595959" font-family="Verdana,Verdana_MSFontService,sans-serif" font-weight="400" font-size="46" transform="matrix(1 0 0 1 3710.9 1631)">ATLANTIS Labels</text></g><rect x="1590.5" y="67.4999" width="4353" height="1631" stroke="#D9D9D9" stroke-width="3.4375" stroke-linejoin="round" stroke-miterlimit="10" fill="none"/></g></svg>