<svg width="4356" height="1634" xmlns="http://www.w3.org/2000/svg" xmlns:xlink="http://www.w3.org/1999/xlink" overflow="hidden"><defs><clipPath id="clip0"><rect x="874" y="76" width="4356" height="1634"/></clipPath><clipPath id="clip1"><rect x="874" y="77" width="4354" height="1631"/></clipPath><clipPath id="clip2"><rect x="1197" y="127" width="3984" height="1060"/></clipPath><clipPath id="clip3"><rect x="874" y="77" width="4354" height="1631"/></clipPath><clipPath id="clip4"><rect x="874" y="77" width="4354" height="1631"/></clipPath><clipPath id="clip5"><rect x="874" y="77" width="4354" height="1631"/></clipPath><clipPath id="clip6"><rect x="874" y="77" width="4354" height="1631"/></clipPath><clipPath id="clip7"><rect x="874" y="77" width="4354" height="1631"/></clipPath><clipPath id="clip8"><rect x="874" y="77" width="4354" height="1631"/></clipPath><clipPath id="clip9"><rect x="874" y="77" width="4354" height="1631"/></clipPath><clipPath id="clip10"><rect x="874" y="77" width="4354" height="1631"/></clipPath><clipPath id="clip11"><rect x="874" y="77" width="4354" height="1631"/></clipPath><clipPath id="clip12"><rect x="874" y="77" width="4354" height="1631"/></clipPath><clipPath id="clip13"><rect x="874" y="77" width="4354" height="1631"/></clipPath><clipPath id="clip14"><rect x="874" y="77" width="4354" height="1631"/></clipPath><clipPath id="clip15"><rect x="874" y="77" width="4354" height="1631"/></clipPath><clipPath id="clip16"><rect x="874" y="77" width="4354" height="1631"/></clipPath><clipPath id="clip17"><rect x="874" y="77" width="4354" height="1631"/></clipPath><clipPath id="clip18"><rect x="874" y="77" width="4354" height="1631"/></clipPath><clipPath id="clip19"><rect x="874" y="77" width="4354" height="1631"/></clipPath><clipPath id="clip20"><rect x="874" y="77" width="4354" height="1631"/></clipPath><clipPath id="clip21"><rect x="874" y="77" width="4354" height="1631"/></clipPath><clipPath id="clip22"><rect x="874" y="77" width="4354" height="1631"/></clipPath><clipPath id="clip23"><rect x="874" y="77" width="4354" height="1631"/></clipPath><clipPath id="clip24"><rect x="874" y="77" width="4354" height="1631"/></clipPath><clipPath id="clip25"><rect x="874" y="77" width="4354" height="1631"/></clipPath><clipPath id="clip26"><rect x="874" y="77" width="4354" height="1631"/></clipPath><clipPath id="clip27"><rect x="874" y="77" width="4354" height="1631"/></clipPath><clipPath id="clip28"><rect x="874" y="77" width="4354" height="1631"/></clipPath><clipPath id="clip29"><rect x="874" y="77" width="4354" height="1631"/></clipPath><clipPath id="clip30"><rect x="874" y="77" width="4354" height="1631"/></clipPath><clipPath id="clip31"><rect x="874" y="77" width="4354" height="1631"/></clipPath><clipPath id="clip32"><rect x="874" y="77" width="4354" height="1631"/></clipPath><clipPath id="clip33"><rect x="874" y="77" width="4354" height="1631"/></clipPath><clipPath id="clip34"><rect x="874" y="77" width="4354" height="1631"/></clipPath><clipPath id="clip35"><rect x="874" y="77" width="4354" height="1631"/></clipPath><clipPath id="clip36"><rect x="874" y="77" width="4354" height="1631"/></clipPath><clipPath id="clip37"><rect x="874" y="77" width="4354" height="1631"/></clipPath><clipPath id="clip38"><rect x="874" y="77" width="4354" height="1631"/></clipPath><clipPath id="clip39"><rect x="874" y="77" width="4354" height="1631"/></clipPath><clipPath id="clip40"><rect x="874" y="77" width="4354" height="1631"/></clipPath><clipPath id="clip41"><rect x="874" y="77" width="4354" height="1631"/></clipPath><clipPath id="clip42"><rect x="874" y="77" width="4354" height="1631"/></clipPath><clipPath id="clip43"><rect x="874" y="77" width="4354" height="1631"/></clipPath><clipPath id="clip44"><rect x="874" y="77" width="4354" height="1631"/></clipPath><clipPath id="clip45"><rect x="874" y="77" width="4354" height="1631"/></clipPath><clipPath id="clip46"><rect x="874" y="77" width="4354" height="1631"/></clipPath><clipPath id="clip47"><rect x="874" y="77" width="4354" height="1631"/></clipPath><clipPath id="clip48"><rect x="874" y="77" width="4354" height="1631"/></clipPath><clipPath id="clip49"><rect x="874" y="77" width="4354" height="1631"/></clipPath><clipPath id="clip50"><rect x="874" y="77" width="4354" height="1631"/></clipPath><clipPath id="clip51"><rect x="874" y="77" width="4354" height="1631"/></clipPath><clipPath id="clip52"><rect x="874" y="77" width="4354" height="1631"/></clipPath><clipPath id="clip53"><rect x="874" y="77" width="4354" height="1631"/></clipPath><clipPath id="clip54"><rect x="874" y="77" width="4354" height="1631"/></clipPath><clipPath id="clip55"><rect x="874" y="77" width="4354" height="1631"/></clipPath><clipPath id="clip56"><rect x="874" y="77" width="4354" height="1631"/></clipPath><clipPath id="clip57"><rect x="874" y="77" width="4354" height="1631"/></clipPath><clipPath id="clip58"><rect x="874" y="77" width="4354" height="1631"/></clipPath><clipPath id="clip59"><rect x="874" y="77" width="4354" height="1631"/></clipPath><clipPath id="clip60"><rect x="874" y="77" width="4354" height="1631"/></clipPath><clipPath id="clip61"><rect x="874" y="77" width="4354" height="1631"/></clipPath><clipPath id="clip62"><rect x="874" y="77" width="4354" height="1631"/></clipPath><clipPath id="clip63"><rect x="874" y="77" width="4354" height="1631"/></clipPath><clipPath id="clip64"><rect x="874" y="77" width="4354" height="1631"/></clipPath><clipPath id="clip65"><rect x="874" y="77" width="4354" height="1631"/></clipPath><clipPath id="clip66"><rect x="874" y="77" width="4354" height="1631"/></clipPath><clipPath id="clip67"><rect x="874" y="77" width="4354" height="1631"/></clipPath><clipPath id="clip68"><rect x="874" y="77" width="4354" height="1631"/></clipPath><clipPath id="clip69"><rect x="874" y="77" width="4354" height="1631"/></clipPath><clipPath id="clip70"><rect x="874" y="77" width="4354" height="1631"/></clipPath><clipPath id="clip71"><rect x="874" y="77" width="4354" height="1631"/></clipPath><clipPath id="clip72"><rect x="874" y="77" width="4354" height="1631"/></clipPath><clipPath id="clip73"><rect x="874" y="77" width="4354" height="1631"/></clipPath><clipPath id="clip74"><rect x="874" y="77" width="4354" height="1631"/></clipPath><clipPath id="clip75"><rect x="874" y="77" width="4354" height="1631"/></clipPath><clipPath id="clip76"><rect x="874" y="77" width="4354" height="1631"/></clipPath><clipPath id="clip77"><rect x="874" y="77" width="4354" height="1631"/></clipPath><clipPath id="clip78"><rect x="874" y="77" width="4354" height="1631"/></clipPath><clipPath id="clip79"><rect x="874" y="77" width="4354" height="1631"/></clipPath><clipPath id="clip80"><rect x="874" y="77" width="4354" height="1631"/></clipPath><clipPath id="clip81"><rect x="874" y="77" width="4354" height="1631"/></clipPath><clipPath id="clip82"><rect x="874" y="77" width="4354" height="1631"/></clipPath><clipPath id="clip83"><rect x="874" y="77" width="4354" height="1631"/></clipPath><clipPath id="clip84"><rect x="874" y="77" width="4354" height="1631"/></clipPath><clipPath id="clip85"><rect x="874" y="77" width="4354" height="1631"/></clipPath><clipPath id="clip86"><rect x="874" y="77" width="4354" height="1631"/></clipPath><clipPath id="clip87"><rect x="874" y="77" width="4354" height="1631"/></clipPath><clipPath id="clip88"><rect x="874" y="77" width="4354" height="1631"/></clipPath><clipPath id="clip89"><rect x="874" y="77" width="4354" height="1631"/></clipPath><clipPath id="clip90"><rect x="874" y="77" width="4354" height="1631"/></clipPath><clipPath id="clip91"><rect x="874" y="77" width="4354" height="1631"/></clipPath><clipPath id="clip92"><rect x="874" y="77" width="4354" height="1631"/></clipPath><clipPath id="clip93"><rect x="874" y="77" width="4354" height="1631"/></clipPath><clipPath id="clip94"><rect x="874" y="77" width="4354" height="1631"/></clipPath><clipPath id="clip95"><rect x="874" y="77" width="4354" height="1631"/></clipPath><clipPath id="clip96"><rect x="874" y="77" width="4354" height="1631"/></clipPath><clipPath id="clip97"><rect x="874" y="77" width="4354" height="1631"/></clipPath><clipPath id="clip98"><rect x="874" y="77" width="4354" height="1631"/></clipPath><clipPath id="clip99"><rect x="874" y="77" width="4354" height="1631"/></clipPath><clipPath id="clip100"><rect x="874" y="77" width="4354" height="1631"/></clipPath><clipPath id="clip101"><rect x="874" y="77" width="4354" height="1631"/></clipPath><clipPath id="clip102"><rect x="874" y="77" width="4354" height="1631"/></clipPath><clipPath id="clip103"><rect x="874" y="77" width="4354" height="1631"/></clipPath><clipPath id="clip104"><rect x="874" y="77" width="4354" height="1631"/></clipPath><clipPath id="clip105"><rect x="874" y="77" width="4354" height="1631"/></clipPath><clipPath id="clip106"><rect x="874" y="77" width="4354" height="1631"/></clipPath><clipPath id="clip107"><rect x="874" y="77" width="4354" height="1631"/></clipPath><clipPath id="clip108"><rect x="874" y="77" width="4354" height="1631"/></clipPath><clipPath id="clip109"><rect x="874" y="77" width="4354" height="1631"/></clipPath><clipPath id="clip110"><rect x="874" y="77" width="4354" height="1631"/></clipPath><clipPath id="clip111"><rect x="874" y="77" width="4354" height="1631"/></clipPath><clipPath id="clip112"><rect x="874" y="77" width="4354" height="1631"/></clipPath><clipPath id="clip113"><rect x="874" y="77" width="4354" height="1631"/></clipPath><clipPath id="clip114"><rect x="874" y="77" width="4354" height="1631"/></clipPath><clipPath id="clip115"><rect x="874" y="77" width="4354" height="1631"/></clipPath><clipPath id="clip116"><rect x="874" y="77" width="4354" height="1631"/></clipPath><clipPath id="clip117"><rect x="874" y="77" width="4354" height="1631"/></clipPath><clipPath id="clip118"><rect x="874" y="77" width="4354" height="1631"/></clipPath><clipPath id="clip119"><rect x="874" y="77" width="4354" height="1631"/></clipPath><clipPath id="clip120"><rect x="874" y="77" width="4354" height="1631"/></clipPath><clipPath id="clip121"><rect x="874" y="77" width="4354" height="1631"/></clipPath><clipPath id="clip122"><rect x="874" y="77" width="4354" height="1631"/></clipPath><clipPath id="clip123"><rect x="874" y="77" width="4354" height="1631"/></clipPath><clipPath id="clip124"><rect x="874" y="77" width="4354" height="1631"/></clipPath><clipPath id="clip125"><rect x="874" y="77" width="4354" height="1631"/></clipPath><clipPath id="clip126"><rect x="874" y="77" width="4354" height="1631"/></clipPath></defs><g clip-path="url(#clip0)" transform="translate(-874 -76)"><rect x="875" y="77" width="4353" height="1631" fill="#FFFFFF"/><g clip-path="url(#clip1)"><path d="M1197.5 1007.53 5178.5 1007.53M1197.5 831.527 5178.5 831.527M1197.5 655.522 5178.5 655.522M1197.5 479.516 5178.5 479.516M1197.5 303.51 5178.5 303.51M1197.5 127.5 5178.5 127.5" stroke="#D9D9D9" stroke-width="3.4375" stroke-linejoin="round" stroke-miterlimit="10" fill="none"/></g><g clip-path="url(#clip2)"><path d="M1199.04 249.008 1266.04 249.008 1266.04 1184 1199.04 1184ZM1269.04 341.011 1336.04 341.011 1336.04 1184 1269.04 1184ZM1339.04 686.023 1406.05 686.023 1406.05 1184 1339.04 1184ZM1409.05 757.025 1475.05 757.025 1475.05 1184 1409.05 1184ZM1479.05 847.028 1545.05 847.028 1545.05 1184 1479.05 1184ZM1549.05 906.03 1615.05 906.03 1615.05 1184 1549.05 1184ZM1618.05 912.03 1685.06 912.03 1685.06 1184 1618.05 1184ZM1688.06 914.03 1755.06 914.03 1755.06 1184 1688.06 1184ZM1758.06 990.032 1825.06 990.032 1825.06 1184 1758.06 1184ZM1828.06 1007.03 1894.06 1007.03 1894.06 1184 1828.06 1184ZM1898.06 1028.03 1964.06 1028.03 1964.06 1184 1898.06 1184ZM1968.06 1036.03 2034.07 1036.03 2034.07 1184 1968.06 1184ZM2037.07 1052.03 2104.07 1052.03 2104.07 1184 2037.07 1184ZM2107.07 1061.03 2174.07 1061.03 2174.07 1184 2107.07 1184ZM2177.07 1065.03 2243.07 1065.03 2243.07 1184 2177.07 1184ZM2247.07 1070.04 2313.08 1070.04 2313.08 1184 2247.07 1184ZM2317.08 1076.04 2383.08 1076.04 2383.08 1184 2317.08 1184ZM2386.08 1077.04 2453.08 1077.04 2453.08 1184 2386.08 1184ZM2456.08 1083.04 2523.08 1083.04 2523.08 1184 2456.08 1184ZM2526.08 1090.04 2593.08 1090.04 2593.08 1184 2526.08 1184ZM2596.09 1105.04 2662.09 1105.04 2662.09 1184 2596.09 1184ZM2666.09 1109.04 2732.09 1109.04 2732.09 1184 2666.09 1184ZM2736.09 1112.04 2802.09 1112.04 2802.09 1184 2736.09 1184ZM2805.09 1113.04 2872.09 1113.04 2872.09 1184 2805.09 1184ZM2875.09 1114.04 2942.1 1114.04 2942.1 1184 2875.09 1184ZM2945.1 1116.04 3012.1 1116.04 3012.1 1184 2945.1 1184ZM3015.1 1120.04 3081.1 1120.04 3081.1 1184 3015.1 1184ZM3085.1 1121.04 3151.1 1121.04 3151.1 1184 3085.1 1184ZM3155.1 1122.04 3221.11 1122.04 3221.11 1184 3155.1 1184ZM3224.11 1123.04 3291.11 1123.04 3291.11 1184 3224.11 1184ZM3294.11 1124.04 3361.11 1124.04 3361.11 1184 3294.11 1184ZM3364.11 1126.04 3431.11 1126.04 3431.11 1184 3364.11 1184ZM3434.11 1128.04 3500.11 1128.04 3500.11 1184 3434.11 1184ZM3504.11 1131.04 3570.12 1131.04 3570.12 1184 3504.11 1184ZM3574.12 1132.04 3640.12 1132.04 3640.12 1184 3574.12 1184ZM3643.12 1135.04 3710.12 1135.04 3710.12 1184 3643.12 1184ZM3713.12 1137.04 3780.12 1137.04 3780.12 1184 3713.12 1184ZM3783.12 1138.04 3849.13 1138.04 3849.13 1184 3783.12 1184ZM3853.13 1147.04 3919.13 1147.04 3919.13 1184 3853.13 1184ZM3923.13 1152.04 3989.13 1152.04 3989.13 1184 3923.13 1184ZM3992.13 1154.04 4059.13 1154.04 4059.13 1184 3992.13 1184ZM4062.13 1155.04 4129.14 1155.04 4129.14 1184 4062.13 1184ZM4132.14 1156.04 4199.14 1156.04 4199.14 1184 4132.14 1184ZM4202.14 1156.04 4268.14 1156.04 4268.14 1184 4202.14 1184ZM4272.14 1158.04 4338.14 1158.04 4338.14 1184 4272.14 1184ZM4342.14 1159.04 4408.14 1159.04 4408.14 1184 4342.14 1184ZM4411.14 1160.04 4478.15 1160.04 4478.15 1184 4411.14 1184ZM4481.15 1163.04 4548.15 1163.04 4548.15 1184 4481.15 1184ZM4551.15 1164.04 4618.15 1164.04 4618.15 1184 4551.15 1184ZM4621.15 1166.04 4687.15 1166.04 4687.15 1184 4621.15 1184ZM4691.15 1171.04 4757.16 1171.04 4757.16 1184 4691.15 1184ZM4761.16 1176.04 4827.16 1176.04 4827.16 1184 4761.16 1184ZM4830.16 1177.04 4897.16 1177.04 4897.16 1184 4830.16 1184ZM4900.16 1178.04 4967.16 1178.04 4967.16 1184 4900.16 1184ZM4970.16 1182.04 5037.17 1182.04 5037.17 1184 4970.16 1184ZM5040.17 1182.04 5106.17 1182.04 5106.17 1184 5040.17 1184ZM5110.17 1183 5176.17 1183 5176.17 1184 5110.17 1184Z" fill="#4472C4"/></g><g clip-path="url(#clip3)"><path d="M1197.5 1183.5 5178.5 1183.5" stroke="#D9D9D9" stroke-width="3.4375" stroke-linejoin="round" stroke-miterlimit="10" fill="none" fill-rule="evenodd"/></g><g clip-path="url(#clip4)"><text fill="#404040" font-family="Verdana,Verdana_MSFontService,sans-serif" font-weight="400" font-size="41" transform="matrix(6.12323e-17 -1 1 6.12323e-17 1248.63 248)">531086</text></g><g clip-path="url(#clip5)"><text fill="#404040" font-family="Verdana,Verdana_MSFontService,sans-serif" font-weight="400" font-size="41" transform="matrix(6.12323e-17 -1 1 6.12323e-17 1318.46 313)">479019</text></g><g clip-path="url(#clip6)"><text fill="#404040" font-family="Verdana,Verdana_MSFontService,sans-serif" font-weight="400" font-size="41" transform="matrix(6.12323e-17 -1 1 6.12323e-17 1388.29 658)">282895</text></g><g clip-path="url(#clip7)"><text fill="#404040" font-family="Verdana,Verdana_MSFontService,sans-serif" font-weight="400" font-size="41" transform="matrix(6.12323e-17 -1 1 6.12323e-17 1458.12 730)">242271</text></g><g clip-path="url(#clip8)"><text fill="#404040" font-family="Verdana,Verdana_MSFontService,sans-serif" font-weight="400" font-size="41" transform="matrix(6.12323e-17 -1 1 6.12323e-17 1527.95 820)">191146</text></g><g clip-path="url(#clip9)"><text fill="#404040" font-family="Verdana,Verdana_MSFontService,sans-serif" font-weight="400" font-size="41" transform="matrix(6.12323e-17 -1 1 6.12323e-17 1597.78 879)">157568</text></g><g clip-path="url(#clip10)"><text fill="#404040" font-family="Verdana,Verdana_MSFontService,sans-serif" font-weight="400" font-size="41" transform="matrix(6.12323e-17 -1 1 6.12323e-17 1667.61 884)">154391</text></g><g clip-path="url(#clip11)"><text fill="#404040" font-family="Verdana,Verdana_MSFontService,sans-serif" font-weight="400" font-size="41" transform="matrix(6.12323e-17 -1 1 6.12323e-17 1737.43 887)">153160</text></g><g clip-path="url(#clip12)"><text fill="#404040" font-family="Verdana,Verdana_MSFontService,sans-serif" font-weight="400" font-size="41" transform="matrix(6.12323e-17 -1 1 6.12323e-17 1807.26 963)">110023</text></g><g clip-path="url(#clip13)"><text fill="#404040" font-family="Verdana,Verdana_MSFontService,sans-serif" font-weight="400" font-size="41" transform="matrix(6.12323e-17 -1 1 6.12323e-17 1877.09 980)">100249</text></g><g clip-path="url(#clip14)"><text fill="#404040" font-family="Verdana,Verdana_MSFontService,sans-serif" font-weight="400" font-size="41" transform="matrix(6.12323e-17 -1 1 6.12323e-17 1946.92 1000)">88665</text></g><g clip-path="url(#clip15)"><text fill="#404040" font-family="Verdana,Verdana_MSFontService,sans-serif" font-weight="400" font-size="41" transform="matrix(6.12323e-17 -1 1 6.12323e-17 2016.75 1009)">83837</text></g><g clip-path="url(#clip16)"><text fill="#404040" font-family="Verdana,Verdana_MSFontService,sans-serif" font-weight="400" font-size="41" transform="matrix(6.12323e-17 -1 1 6.12323e-17 2086.58 1025)">74702</text></g><g clip-path="url(#clip17)"><text fill="#404040" font-family="Verdana,Verdana_MSFontService,sans-serif" font-weight="400" font-size="41" transform="matrix(6.12323e-17 -1 1 6.12323e-17 2156.41 1034)">69690</text></g><g clip-path="url(#clip18)"><text fill="#404040" font-family="Verdana,Verdana_MSFontService,sans-serif" font-weight="400" font-size="41" transform="matrix(6.12323e-17 -1 1 6.12323e-17 2226.23 1038)">67246</text></g><g clip-path="url(#clip19)"><text fill="#404040" font-family="Verdana,Verdana_MSFontService,sans-serif" font-weight="400" font-size="41" transform="matrix(6.12323e-17 -1 1 6.12323e-17 2296.06 1043)">64577</text></g><g clip-path="url(#clip20)"><text fill="#404040" font-family="Verdana,Verdana_MSFontService,sans-serif" font-weight="400" font-size="41" transform="matrix(6.12323e-17 -1 1 6.12323e-17 2365.89 1049)">61032</text></g><g clip-path="url(#clip21)"><text fill="#404040" font-family="Verdana,Verdana_MSFontService,sans-serif" font-weight="400" font-size="41" transform="matrix(6.12323e-17 -1 1 6.12323e-17 2435.72 1049)">60651</text></g><g clip-path="url(#clip22)"><text fill="#404040" font-family="Verdana,Verdana_MSFontService,sans-serif" font-weight="400" font-size="41" transform="matrix(6.12323e-17 -1 1 6.12323e-17 2505.55 1055)">57325</text></g><g clip-path="url(#clip23)"><text fill="#404040" font-family="Verdana,Verdana_MSFontService,sans-serif" font-weight="400" font-size="41" transform="matrix(6.12323e-17 -1 1 6.12323e-17 2575.38 1062)">53474</text></g><g clip-path="url(#clip24)"><text fill="#404040" font-family="Verdana,Verdana_MSFontService,sans-serif" font-weight="400" font-size="41" transform="matrix(6.12323e-17 -1 1 6.12323e-17 2645.21 1078)">44492</text></g><g clip-path="url(#clip25)"><text fill="#404040" font-family="Verdana,Verdana_MSFontService,sans-serif" font-weight="400" font-size="41" transform="matrix(6.12323e-17 -1 1 6.12323e-17 2715.03 1081)">42561</text></g><g clip-path="url(#clip26)"><text fill="#404040" font-family="Verdana,Verdana_MSFontService,sans-serif" font-weight="400" font-size="41" transform="matrix(6.12323e-17 -1 1 6.12323e-17 2784.86 1085)">40551</text></g><g clip-path="url(#clip27)"><text fill="#404040" font-family="Verdana,Verdana_MSFontService,sans-serif" font-weight="400" font-size="41" transform="matrix(6.12323e-17 -1 1 6.12323e-17 2854.69 1085)">40311</text></g><g clip-path="url(#clip28)"><text fill="#404040" font-family="Verdana,Verdana_MSFontService,sans-serif" font-weight="400" font-size="41" transform="matrix(6.12323e-17 -1 1 6.12323e-17 2924.52 1086)">39706</text></g><g clip-path="url(#clip29)"><text fill="#404040" font-family="Verdana,Verdana_MSFontService,sans-serif" font-weight="400" font-size="41" transform="matrix(6.12323e-17 -1 1 6.12323e-17 2994.35 1088)">38561</text></g><g clip-path="url(#clip30)"><text fill="#404040" font-family="Verdana,Verdana_MSFontService,sans-serif" font-weight="400" font-size="41" transform="matrix(6.12323e-17 -1 1 6.12323e-17 3064.18 1092)">36415</text></g><g clip-path="url(#clip31)"><text fill="#404040" font-family="Verdana,Verdana_MSFontService,sans-serif" font-weight="400" font-size="41" transform="matrix(6.12323e-17 -1 1 6.12323e-17 3134 1094)">35412</text></g><g clip-path="url(#clip32)"><text fill="#404040" font-family="Verdana,Verdana_MSFontService,sans-serif" font-weight="400" font-size="41" transform="matrix(6.12323e-17 -1 1 6.12323e-17 3203.83 1094)">35102</text></g><g clip-path="url(#clip33)"><text fill="#404040" font-family="Verdana,Verdana_MSFontService,sans-serif" font-weight="400" font-size="41" transform="matrix(6.12323e-17 -1 1 6.12323e-17 3273.66 1095)">34743</text></g><g clip-path="url(#clip34)"><text fill="#404040" font-family="Verdana,Verdana_MSFontService,sans-serif" font-weight="400" font-size="41" transform="matrix(6.12323e-17 -1 1 6.12323e-17 3343.49 1096)">34158</text></g><g clip-path="url(#clip35)"><text fill="#404040" font-family="Verdana,Verdana_MSFontService,sans-serif" font-weight="400" font-size="41" transform="matrix(6.12323e-17 -1 1 6.12323e-17 3413.32 1098)">32861</text></g><g clip-path="url(#clip36)"><text fill="#404040" font-family="Verdana,Verdana_MSFontService,sans-serif" font-weight="400" font-size="41" transform="matrix(6.12323e-17 -1 1 6.12323e-17 3483.15 1100)">31785</text></g><g clip-path="url(#clip37)"><text fill="#404040" font-family="Verdana,Verdana_MSFontService,sans-serif" font-weight="400" font-size="41" transform="matrix(6.12323e-17 -1 1 6.12323e-17 3552.98 1104)">29933</text></g><g clip-path="url(#clip38)"><text fill="#404040" font-family="Verdana,Verdana_MSFontService,sans-serif" font-weight="400" font-size="41" transform="matrix(6.12323e-17 -1 1 6.12323e-17 3622.8 1105)">29375</text></g><g clip-path="url(#clip39)"><text fill="#404040" font-family="Verdana,Verdana_MSFontService,sans-serif" font-weight="400" font-size="41" transform="matrix(6.12323e-17 -1 1 6.12323e-17 3692.63 1107)">27710</text></g><g clip-path="url(#clip40)"><text fill="#404040" font-family="Verdana,Verdana_MSFontService,sans-serif" font-weight="400" font-size="41" transform="matrix(6.12323e-17 -1 1 6.12323e-17 3762.46 1110)">26320</text></g><g clip-path="url(#clip41)"><text fill="#404040" font-family="Verdana,Verdana_MSFontService,sans-serif" font-weight="400" font-size="41" transform="matrix(6.12323e-17 -1 1 6.12323e-17 3832.29 1110)">26224</text></g><g clip-path="url(#clip42)"><text fill="#404040" font-family="Verdana,Verdana_MSFontService,sans-serif" font-weight="400" font-size="41" transform="matrix(6.12323e-17 -1 1 6.12323e-17 3902.12 1119)">21050</text></g><g clip-path="url(#clip43)"><text fill="#404040" font-family="Verdana,Verdana_MSFontService,sans-serif" font-weight="400" font-size="41" transform="matrix(6.12323e-17 -1 1 6.12323e-17 3971.95 1124)">18260</text></g><g clip-path="url(#clip44)"><text fill="#404040" font-family="Verdana,Verdana_MSFontService,sans-serif" font-weight="400" font-size="41" transform="matrix(6.12323e-17 -1 1 6.12323e-17 4041.78 1127)">16593</text></g><g clip-path="url(#clip45)"><text fill="#404040" font-family="Verdana,Verdana_MSFontService,sans-serif" font-weight="400" font-size="41" transform="matrix(6.12323e-17 -1 1 6.12323e-17 4111.6 1128)">16003</text></g><g clip-path="url(#clip46)"><text fill="#404040" font-family="Verdana,Verdana_MSFontService,sans-serif" font-weight="400" font-size="41" transform="matrix(6.12323e-17 -1 1 6.12323e-17 4181.43 1128)">15809</text></g><g clip-path="url(#clip47)"><text fill="#404040" font-family="Verdana,Verdana_MSFontService,sans-serif" font-weight="400" font-size="41" transform="matrix(6.12323e-17 -1 1 6.12323e-17 4251.26 1129)">15505</text></g><g clip-path="url(#clip48)"><text fill="#404040" font-family="Verdana,Verdana_MSFontService,sans-serif" font-weight="400" font-size="41" transform="matrix(6.12323e-17 -1 1 6.12323e-17 4321.09 1131)">14554</text></g><g clip-path="url(#clip49)"><text fill="#404040" font-family="Verdana,Verdana_MSFontService,sans-serif" font-weight="400" font-size="41" transform="matrix(6.12323e-17 -1 1 6.12323e-17 4390.92 1132)">13982</text></g><g clip-path="url(#clip50)"><text fill="#404040" font-family="Verdana,Verdana_MSFontService,sans-serif" font-weight="400" font-size="41" transform="matrix(6.12323e-17 -1 1 6.12323e-17 4460.75 1133)">13381</text></g><g clip-path="url(#clip51)"><text fill="#404040" font-family="Verdana,Verdana_MSFontService,sans-serif" font-weight="400" font-size="41" transform="matrix(6.12323e-17 -1 1 6.12323e-17 4530.58 1136)">11464</text></g><g clip-path="url(#clip52)"><text fill="#404040" font-family="Verdana,Verdana_MSFontService,sans-serif" font-weight="400" font-size="41" transform="matrix(6.12323e-17 -1 1 6.12323e-17 4600.4 1137)">11178</text></g><g clip-path="url(#clip53)"><text fill="#404040" font-family="Verdana,Verdana_MSFontService,sans-serif" font-weight="400" font-size="41" transform="matrix(6.12323e-17 -1 1 6.12323e-17 4670.23 1139)">9827</text></g><g clip-path="url(#clip54)"><text fill="#404040" font-family="Verdana,Verdana_MSFontService,sans-serif" font-weight="400" font-size="41" transform="matrix(6.12323e-17 -1 1 6.12323e-17 4740.06 1143)">7418</text></g><g clip-path="url(#clip55)"><text fill="#404040" font-family="Verdana,Verdana_MSFontService,sans-serif" font-weight="400" font-size="41" transform="matrix(6.12323e-17 -1 1 6.12323e-17 4809.89 1148)">4393</text></g><g clip-path="url(#clip56)"><text fill="#404040" font-family="Verdana,Verdana_MSFontService,sans-serif" font-weight="400" font-size="41" transform="matrix(6.12323e-17 -1 1 6.12323e-17 4879.72 1150)">3647</text></g><g clip-path="url(#clip57)"><text fill="#404040" font-family="Verdana,Verdana_MSFontService,sans-serif" font-weight="400" font-size="41" transform="matrix(6.12323e-17 -1 1 6.12323e-17 4949.55 1151)">3061</text></g><g clip-path="url(#clip58)"><text fill="#404040" font-family="Verdana,Verdana_MSFontService,sans-serif" font-weight="400" font-size="41" transform="matrix(6.12323e-17 -1 1 6.12323e-17 5019.38 1154)">1151</text></g><g clip-path="url(#clip59)"><text fill="#404040" font-family="Verdana,Verdana_MSFontService,sans-serif" font-weight="400" font-size="41" transform="matrix(6.12323e-17 -1 1 6.12323e-17 5089.21 1155)">791</text></g><g clip-path="url(#clip60)"><text fill="#404040" font-family="Verdana,Verdana_MSFontService,sans-serif" font-weight="400" font-size="41" transform="matrix(6.12323e-17 -1 1 6.12323e-17 5159.03 1156)">161</text></g><g clip-path="url(#clip61)"><text fill="#595959" font-family="Verdana,Verdana_MSFontService,sans-serif" font-weight="400" font-size="41" transform="matrix(1 0 0 1 1132.68 1197)">0</text></g><g clip-path="url(#clip62)"><text fill="#595959" font-family="Verdana,Verdana_MSFontService,sans-serif" font-weight="400" font-size="41" transform="matrix(1 0 0 1 1001.6 1021)">100000</text></g><g clip-path="url(#clip63)"><text fill="#595959" font-family="Verdana,Verdana_MSFontService,sans-serif" font-weight="400" font-size="41" transform="matrix(1 0 0 1 1001.6 845)">200000</text></g><g clip-path="url(#clip64)"><text fill="#595959" font-family="Verdana,Verdana_MSFontService,sans-serif" font-weight="400" font-size="41" transform="matrix(1 0 0 1 1001.6 669)">300000</text></g><g clip-path="url(#clip65)"><text fill="#595959" font-family="Verdana,Verdana_MSFontService,sans-serif" font-weight="400" font-size="41" transform="matrix(1 0 0 1 1001.6 493)">400000</text></g><g clip-path="url(#clip66)"><text fill="#595959" font-family="Verdana,Verdana_MSFontService,sans-serif" font-weight="400" font-size="41" transform="matrix(1 0 0 1 1001.6 317)">500000</text></g><g clip-path="url(#clip67)"><text fill="#595959" font-family="Verdana,Verdana_MSFontService,sans-serif" font-weight="400" font-size="41" transform="matrix(1 0 0 1 1001.6 141)">600000</text></g><g clip-path="url(#clip68)"><text fill="#595959" font-family="Verdana,Verdana_MSFontService,sans-serif" font-weight="400" font-size="41" transform="matrix(6.12323e-17 -1 1 6.12323e-17 1248.64 1282)">sky</text></g><g clip-path="url(#clip69)"><text fill="#595959" font-family="Verdana,Verdana_MSFontService,sans-serif" font-weight="400" font-size="41" transform="matrix(6.12323e-17 -1 1 6.12323e-17 1318.46 1430)">vegetation</text></g><g clip-path="url(#clip70)"><text fill="#595959" font-family="Verdana,Verdana_MSFontService,sans-serif" font-weight="400" font-size="41" transform="matrix(6.12323e-17 -1 1 6.12323e-17 1388.29 1350)">terrain</text></g><g clip-path="url(#clip71)"><text fill="#595959" font-family="Verdana,Verdana_MSFontService,sans-serif" font-weight="400" font-size="41" transform="matrix(6.12323e-17 -1 1 6.12323e-17 1458.12 1375)">building</text></g><g clip-path="url(#clip72)"><text fill="#595959" font-family="Verdana,Verdana_MSFontService,sans-serif" font-weight="400" font-size="41" transform="matrix(6.12323e-17 -1 1 6.12323e-17 1527.95 1454)">background</text></g><g clip-path="url(#clip73)"><text fill="#595959" font-family="Verdana,Verdana_MSFontService,sans-serif" font-weight="400" font-size="41" transform="matrix(6.12323e-17 -1 1 6.12323e-17 1597.78 1282)">sea</text></g><g clip-path="url(#clip74)"><text fill="#595959" font-family="Verdana,Verdana_MSFontService,sans-serif" font-weight="400" font-size="41" transform="matrix(6.12323e-17 -1 1 6.12323e-17 1667.61 1352)">person</text></g><g clip-path="url(#clip75)"><text fill="#595959" font-family="Verdana,Verdana_MSFontService,sans-serif" font-weight="400" font-size="41" transform="matrix(6.12323e-17 -1 1 6.12323e-17 1737.44 1298)">pole</text></g><g clip-path="url(#clip76)"><text fill="#595959" font-family="Verdana,Verdana_MSFontService,sans-serif" font-weight="400" font-size="41" transform="matrix(6.12323e-17 -1 1 6.12323e-17 1807.26 1323)">fence</text></g><g clip-path="url(#clip77)"><text fill="#595959" font-family="Verdana,Verdana_MSFontService,sans-serif" font-weight="400" font-size="41" transform="matrix(6.12323e-17 -1 1 6.12323e-17 1877.09 1307)">river</text></g><g clip-path="url(#clip78)"><text fill="#595959" font-family="Verdana,Verdana_MSFontService,sans-serif" font-weight="400" font-size="41" transform="matrix(6.12323e-17 -1 1 6.12323e-17 1946.92 1304)">road</text></g><g clip-path="url(#clip79)"><text fill="#595959" font-family="Verdana,Verdana_MSFontService,sans-serif" font-weight="400" font-size="41" transform="matrix(6.12323e-17 -1 1 6.12323e-17 2016.75 1303)">boat</text></g><g clip-path="url(#clip80)"><text fill="#595959" font-family="Verdana,Verdana_MSFontService,sans-serif" font-weight="400" font-size="41" transform="matrix(6.12323e-17 -1 1 6.12323e-17 2086.58 1342)">bridge</text></g><g clip-path="url(#clip81)"><text fill="#595959" font-family="Verdana,Verdana_MSFontService,sans-serif" font-weight="400" font-size="41" transform="matrix(6.12323e-17 -1 1 6.12323e-17 2156.41 1318)">snow</text></g><g clip-path="url(#clip82)"><text fill="#595959" font-family="Verdana,Verdana_MSFontService,sans-serif" font-weight="400" font-size="41" transform="matrix(6.12323e-17 -1 1 6.12323e-17 2226.24 1291)">pier</text></g><g clip-path="url(#clip83)"><text fill="#595959" font-family="Verdana,Verdana_MSFontService,sans-serif" font-weight="400" font-size="41" transform="matrix(6.12323e-17 -1 1 6.12323e-17 2296.06 1389)">sidewalk</text></g><g clip-path="url(#clip84)"><text fill="#595959" font-family="Verdana,Verdana_MSFontService,sans-serif" font-weight="400" font-size="41" transform="matrix(6.12323e-17 -1 1 6.12323e-17 2365.89 1285)">cliff</text></g><g clip-path="url(#clip85)"><text fill="#595959" font-family="Verdana,Verdana_MSFontService,sans-serif" font-weight="400" font-size="41" transform="matrix(6.12323e-17 -1 1 6.12323e-17 2435.72 1275)">car</text></g><g clip-path="url(#clip86)"><text fill="#595959" font-family="Verdana,Verdana_MSFontService,sans-serif" font-weight="400" font-size="41" transform="matrix(6.12323e-17 -1 1 6.12323e-17 2505.55 1399)">shoreline</text></g><g clip-path="url(#clip87)"><text fill="#595959" font-family="Verdana,Verdana_MSFontService,sans-serif" font-weight="400" font-size="41" transform="matrix(6.12323e-17 -1 1 6.12323e-17 2575.38 1320)">canal</text></g><g clip-path="url(#clip88)"><text fill="#595959" font-family="Verdana,Verdana_MSFontService,sans-serif" font-weight="400" font-size="41" transform="matrix(6.12323e-17 -1 1 6.12323e-17 2645.21 1374)">wetland</text></g><g clip-path="url(#clip89)"><text fill="#595959" font-family="Verdana,Verdana_MSFontService,sans-serif" font-weight="400" font-size="41" transform="matrix(6.12323e-17 -1 1 6.12323e-17 2715.04 1445)">breakwater</text></g><g clip-path="url(#clip90)"><text fill="#595959" font-family="Verdana,Verdana_MSFontService,sans-serif" font-weight="400" font-size="41" transform="matrix(6.12323e-17 -1 1 6.12323e-17 2784.86 1321)">levee</text></g><g clip-path="url(#clip91)"><text fill="#595959" font-family="Verdana,Verdana_MSFontService,sans-serif" font-weight="400" font-size="41" transform="matrix(6.12323e-17 -1 1 6.12323e-17 2854.69 1293)">wall</text></g><g clip-path="url(#clip92)"><text fill="#595959" font-family="Verdana,Verdana_MSFontService,sans-serif" font-weight="400" font-size="41" transform="matrix(6.12323e-17 -1 1 6.12323e-17 2924.52 1396)">reservoir</text></g><g clip-path="url(#clip93)"><text fill="#595959" font-family="Verdana,Verdana_MSFontService,sans-serif" font-weight="400" font-size="41" transform="matrix(6.12323e-17 -1 1 6.12323e-17 2994.35 1296)">lake</text></g><g clip-path="url(#clip94)"><text fill="#595959" font-family="Verdana,Verdana_MSFontService,sans-serif" font-weight="400" font-size="41" transform="matrix(6.12323e-17 -1 1 6.12323e-17 3064.18 1341)">marsh</text></g><g clip-path="url(#clip95)"><text fill="#595959" font-family="Verdana,Verdana_MSFontService,sans-serif" font-weight="400" font-size="41" transform="matrix(6.12323e-17 -1 1 6.12323e-17 3134.01 1302)">dam</text></g><g clip-path="url(#clip96)"><text fill="#595959" font-family="Verdana,Verdana_MSFontService,sans-serif" font-weight="400" font-size="41" transform="matrix(6.12323e-17 -1 1 6.12323e-17 3203.84 1375)">spillway</text></g><g clip-path="url(#clip97)"><text fill="#595959" font-family="Verdana,Verdana_MSFontService,sans-serif" font-weight="400" font-size="41" transform="matrix(6.12323e-17 -1 1 6.12323e-17 3273.66 1350)">puddle</text></g><g clip-path="url(#clip98)"><text fill="#595959" font-family="Verdana,Verdana_MSFontService,sans-serif" font-weight="400" font-size="41" transform="matrix(6.12323e-17 -1 1 6.12323e-17 3343.49 1433)">hot_spring</text></g><g clip-path="url(#clip99)"><text fill="#595959" font-family="Verdana,Verdana_MSFontService,sans-serif" font-weight="400" font-size="41" transform="matrix(6.12323e-17 -1 1 6.12323e-17 3413.32 1338)">rapids</text></g><g clip-path="url(#clip100)"><text fill="#595959" font-family="Verdana,Verdana_MSFontService,sans-serif" font-weight="400" font-size="41" transform="matrix(6.12323e-17 -1 1 6.12323e-17 3483.15 1296)">ship</text></g><g clip-path="url(#clip101)"><text fill="#595959" font-family="Verdana,Verdana_MSFontService,sans-serif" font-weight="400" font-size="41" transform="matrix(6.12323e-17 -1 1 6.12323e-17 3552.98 1443)">traffic_sign</text></g><g clip-path="url(#clip102)"><text fill="#595959" font-family="Verdana,Verdana_MSFontService,sans-serif" font-weight="400" font-size="41" transform="matrix(6.12323e-17 -1 1 6.12323e-17 3622.81 1390)">waterfall</text></g><g clip-path="url(#clip103)"><text fill="#595959" font-family="Verdana,Verdana_MSFontService,sans-serif" font-weight="400" font-size="41" transform="matrix(6.12323e-17 -1 1 6.12323e-17 3692.64 1425)">lighthouse</text></g><g clip-path="url(#clip104)"><text fill="#595959" font-family="Verdana,Verdana_MSFontService,sans-serif" font-weight="400" font-size="41" transform="matrix(6.12323e-17 -1 1 6.12323e-17 3762.46 1317)">truck</text></g><g clip-path="url(#clip105)"><text fill="#595959" font-family="Verdana,Verdana_MSFontService,sans-serif" font-weight="400" font-size="41" transform="matrix(6.12323e-17 -1 1 6.12323e-17 3832.29 1472)">water_tower</text></g><g clip-path="url(#clip106)"><text fill="#595959" font-family="Verdana,Verdana_MSFontService,sans-serif" font-weight="400" font-size="41" transform="matrix(6.12323e-17 -1 1 6.12323e-17 3902.12 1313)">flood</text></g><g clip-path="url(#clip107)"><text fill="#595959" font-family="Verdana,Verdana_MSFontService,sans-serif" font-weight="400" font-size="41" transform="matrix(6.12323e-17 -1 1 6.12323e-17 3971.95 1308)">fjord</text></g><g clip-path="url(#clip108)"><text fill="#595959" font-family="Verdana,Verdana_MSFontService,sans-serif" font-weight="400" font-size="41" transform="matrix(6.12323e-17 -1 1 6.12323e-17 4041.78 1312)">ditch</text></g><g clip-path="url(#clip109)"><text fill="#595959" font-family="Verdana,Verdana_MSFontService,sans-serif" font-weight="400" font-size="41" transform="matrix(6.12323e-17 -1 1 6.12323e-17 4111.61 1370)">glaciers</text></g><g clip-path="url(#clip110)"><text fill="#595959" font-family="Verdana,Verdana_MSFontService,sans-serif" font-weight="400" font-size="41" transform="matrix(6.12323e-17 -1 1 6.12323e-17 4181.44 1582)">offshore_platform</text></g><g clip-path="url(#clip111)"><text fill="#595959" font-family="Verdana,Verdana_MSFontService,sans-serif" font-weight="400" font-size="41" transform="matrix(6.12323e-17 -1 1 6.12323e-17 4251.26 1372)">pipeline</text></g><g clip-path="url(#clip112)"><text fill="#595959" font-family="Verdana,Verdana_MSFontService,sans-serif" font-weight="400" font-size="41" transform="matrix(6.12323e-17 -1 1 6.12323e-17 4321.09 1352)">bicycle</text></g><g clip-path="url(#clip113)"><text fill="#595959" font-family="Verdana,Verdana_MSFontService,sans-serif" font-weight="400" font-size="41" transform="matrix(6.12323e-17 -1 1 6.12323e-17 4390.92 1420)">mangrove</text></g><g clip-path="url(#clip114)"><text fill="#595959" font-family="Verdana,Verdana_MSFontService,sans-serif" font-weight="400" font-size="41" transform="matrix(6.12323e-17 -1 1 6.12323e-17 4460.75 1353)">culvert</text></g><g clip-path="url(#clip115)"><text fill="#595959" font-family="Verdana,Verdana_MSFontService,sans-serif" font-weight="400" font-size="41" transform="matrix(6.12323e-17 -1 1 6.12323e-17 4530.58 1477)">cypress_tree</text></g><g clip-path="url(#clip116)"><text fill="#595959" font-family="Verdana,Verdana_MSFontService,sans-serif" font-weight="400" font-size="41" transform="matrix(6.12323e-17 -1 1 6.12323e-17 4600.41 1535)">swimming_pool</text></g><g clip-path="url(#clip117)"><text fill="#595959" font-family="Verdana,Verdana_MSFontService,sans-serif" font-weight="400" font-size="41" transform="matrix(6.12323e-17 -1 1 6.12323e-17 4670.24 1393)">umbrella</text></g><g clip-path="url(#clip118)"><text fill="#595959" font-family="Verdana,Verdana_MSFontService,sans-serif" font-weight="400" font-size="41" transform="matrix(6.12323e-17 -1 1 6.12323e-17 4740.06 1435)">water_well</text></g><g clip-path="url(#clip119)"><text fill="#595959" font-family="Verdana,Verdana_MSFontService,sans-serif" font-weight="400" font-size="41" transform="matrix(6.12323e-17 -1 1 6.12323e-17 4809.89 1307)">train</text></g><g clip-path="url(#clip120)"><text fill="#595959" font-family="Verdana,Verdana_MSFontService,sans-serif" font-weight="400" font-size="41" transform="matrix(6.12323e-17 -1 1 6.12323e-17 4879.72 1436)">river_delta</text></g><g clip-path="url(#clip121)"><text fill="#595959" font-family="Verdana,Verdana_MSFontService,sans-serif" font-weight="400" font-size="41" transform="matrix(6.12323e-17 -1 1 6.12323e-17 4949.55 1285)">bus</text></g><g clip-path="url(#clip122)"><text fill="#595959" font-family="Verdana,Verdana_MSFontService,sans-serif" font-weight="400" font-size="41" transform="matrix(6.12323e-17 -1 1 6.12323e-17 5019.38 1439)">motorcycle</text></g><g clip-path="url(#clip123)"><text fill="#595959" font-family="Verdana,Verdana_MSFontService,sans-serif" font-weight="400" font-size="41" transform="matrix(6.12323e-17 -1 1 6.12323e-17 5089.21 1466)">fire_hydrant</text></g><g clip-path="url(#clip124)"><text fill="#595959" font-family="Verdana,Verdana_MSFontService,sans-serif" font-weight="400" font-size="41" transform="matrix(6.12323e-17 -1 1 6.12323e-17 5159.04 1516)">parking_meter</text></g><g clip-path="url(#clip125)"><text fill="#595959" font-family="Verdana,Verdana_MSFontService,sans-serif" font-weight="400" font-size="46" transform="matrix(6.12323e-17 -1 1 6.12323e-17 978.129 851)">Number of Pixels</text></g><g clip-path="url(#clip126)"><text fill="#595959" font-family="Verdana,Verdana_MSFontService,sans-serif" font-weight="400" font-size="46" transform="matrix(1 0 0 1 2992.42 1641)">ATLANTIS Labels</text></g><rect x="875.5" y="77.4998" width="4353" height="1631" stroke="#D9D9D9" stroke-width="3.4375" stroke-linejoin="round" stroke-miterlimit="10" fill="none"/></g></svg>