<svg width="4356" height="1634" xmlns="http://www.w3.org/2000/svg" xmlns:xlink="http://www.w3.org/1999/xlink" overflow="hidden"><defs><clipPath id="clip0"><rect x="1589" y="66" width="4356" height="1634"/></clipPath><clipPath id="clip1"><rect x="1589" y="67" width="4354" height="1631"/></clipPath><clipPath id="clip2"><rect x="1930" y="117" width="3966" height="1048"/></clipPath><clipPath id="clip3"><rect x="1589" y="67" width="4354" height="1631"/></clipPath><clipPath id="clip4"><rect x="1589" y="67" width="4354" height="1631"/></clipPath><clipPath id="clip5"><rect x="1589" y="67" width="4354" height="1631"/></clipPath><clipPath id="clip6"><rect x="1589" y="67" width="4354" height="1631"/></clipPath><clipPath id="clip7"><rect x="1589" y="67" width="4354" height="1631"/></clipPath><clipPath id="clip8"><rect x="1589" y="67" width="4354" height="1631"/></clipPath><clipPath id="clip9"><rect x="1589" y="67" width="4354" height="1631"/></clipPath><clipPath id="clip10"><rect x="1589" y="67" width="4354" height="1631"/></clipPath><clipPath id="clip11"><rect x="1589" y="67" width="4354" height="1631"/></clipPath><clipPath id="clip12"><rect x="1589" y="67" width="4354" height="1631"/></clipPath><clipPath id="clip13"><rect x="1589" y="67" width="4354" height="1631"/></clipPath><clipPath id="clip14"><rect x="1589" y="67" width="4354" height="1631"/></clipPath><clipPath id="clip15"><rect x="1589" y="67" width="4354" height="1631"/></clipPath><clipPath id="clip16"><rect x="1589" y="67" width="4354" height="1631"/></clipPath><clipPath id="clip17"><rect x="1589" y="67" width="4354" height="1631"/></clipPath><clipPath id="clip18"><rect x="1589" y="67" width="4354" height="1631"/></clipPath><clipPath id="clip19"><rect x="1589" y="67" width="4354" height="1631"/></clipPath><clipPath id="clip20"><rect x="1589" y="67" width="4354" height="1631"/></clipPath><clipPath id="clip21"><rect x="1589" y="67" width="4354" height="1631"/></clipPath><clipPath id="clip22"><rect x="1589" y="67" width="4354" height="1631"/></clipPath><clipPath id="clip23"><rect x="1589" y="67" width="4354" height="1631"/></clipPath><clipPath id="clip24"><rect x="1589" y="67" width="4354" height="1631"/></clipPath><clipPath id="clip25"><rect x="1589" y="67" width="4354" height="1631"/></clipPath><clipPath id="clip26"><rect x="1589" y="67" width="4354" height="1631"/></clipPath><clipPath id="clip27"><rect x="1589" y="67" width="4354" height="1631"/></clipPath><clipPath id="clip28"><rect x="1589" y="67" width="4354" height="1631"/></clipPath><clipPath id="clip29"><rect x="1589" y="67" width="4354" height="1631"/></clipPath><clipPath id="clip30"><rect x="1589" y="67" width="4354" height="1631"/></clipPath><clipPath id="clip31"><rect x="1589" y="67" width="4354" height="1631"/></clipPath><clipPath id="clip32"><rect x="1589" y="67" width="4354" height="1631"/></clipPath><clipPath id="clip33"><rect x="1589" y="67" width="4354" height="1631"/></clipPath><clipPath id="clip34"><rect x="1589" y="67" width="4354" height="1631"/></clipPath><clipPath id="clip35"><rect x="1589" y="67" width="4354" height="1631"/></clipPath><clipPath id="clip36"><rect x="1589" y="67" width="4354" height="1631"/></clipPath><clipPath id="clip37"><rect x="1589" y="67" width="4354" height="1631"/></clipPath><clipPath id="clip38"><rect x="1589" y="67" width="4354" height="1631"/></clipPath><clipPath id="clip39"><rect x="1589" y="67" width="4354" height="1631"/></clipPath><clipPath id="clip40"><rect x="1589" y="67" width="4354" height="1631"/></clipPath><clipPath id="clip41"><rect x="1589" y="67" width="4354" height="1631"/></clipPath><clipPath id="clip42"><rect x="1589" y="67" width="4354" height="1631"/></clipPath><clipPath id="clip43"><rect x="1589" y="67" width="4354" height="1631"/></clipPath><clipPath id="clip44"><rect x="1589" y="67" width="4354" height="1631"/></clipPath><clipPath id="clip45"><rect x="1589" y="67" width="4354" height="1631"/></clipPath><clipPath id="clip46"><rect x="1589" y="67" width="4354" height="1631"/></clipPath><clipPath id="clip47"><rect x="1589" y="67" width="4354" height="1631"/></clipPath><clipPath id="clip48"><rect x="1589" y="67" width="4354" height="1631"/></clipPath><clipPath id="clip49"><rect x="1589" y="67" width="4354" height="1631"/></clipPath><clipPath id="clip50"><rect x="1589" y="67" width="4354" height="1631"/></clipPath><clipPath id="clip51"><rect x="1589" y="67" width="4354" height="1631"/></clipPath><clipPath id="clip52"><rect x="1589" y="67" width="4354" height="1631"/></clipPath><clipPath id="clip53"><rect x="1589" y="67" width="4354" height="1631"/></clipPath><clipPath id="clip54"><rect x="1589" y="67" width="4354" height="1631"/></clipPath><clipPath id="clip55"><rect x="1589" y="67" width="4354" height="1631"/></clipPath><clipPath id="clip56"><rect x="1589" y="67" width="4354" height="1631"/></clipPath><clipPath id="clip57"><rect x="1589" y="67" width="4354" height="1631"/></clipPath><clipPath id="clip58"><rect x="1589" y="67" width="4354" height="1631"/></clipPath><clipPath id="clip59"><rect x="1589" y="67" width="4354" height="1631"/></clipPath><clipPath id="clip60"><rect x="1589" y="67" width="4354" height="1631"/></clipPath><clipPath id="clip61"><rect x="1589" y="67" width="4354" height="1631"/></clipPath><clipPath id="clip62"><rect x="1589" y="67" width="4354" height="1631"/></clipPath><clipPath id="clip63"><rect x="1589" y="67" width="4354" height="1631"/></clipPath><clipPath id="clip64"><rect x="1589" y="67" width="4354" height="1631"/></clipPath><clipPath id="clip65"><rect x="1589" y="67" width="4354" height="1631"/></clipPath><clipPath id="clip66"><rect x="1589" y="67" width="4354" height="1631"/></clipPath><clipPath id="clip67"><rect x="1589" y="67" width="4354" height="1631"/></clipPath><clipPath id="clip68"><rect x="1589" y="67" width="4354" height="1631"/></clipPath><clipPath id="clip69"><rect x="1589" y="67" width="4354" height="1631"/></clipPath><clipPath id="clip70"><rect x="1589" y="67" width="4354" height="1631"/></clipPath><clipPath id="clip71"><rect x="1589" y="67" width="4354" height="1631"/></clipPath><clipPath id="clip72"><rect x="1589" y="67" width="4354" height="1631"/></clipPath><clipPath id="clip73"><rect x="1589" y="67" width="4354" height="1631"/></clipPath><clipPath id="clip74"><rect x="1589" y="67" width="4354" height="1631"/></clipPath><clipPath id="clip75"><rect x="1589" y="67" width="4354" height="1631"/></clipPath><clipPath id="clip76"><rect x="1589" y="67" width="4354" height="1631"/></clipPath><clipPath id="clip77"><rect x="1589" y="67" width="4354" height="1631"/></clipPath><clipPath id="clip78"><rect x="1589" y="67" width="4354" height="1631"/></clipPath><clipPath id="clip79"><rect x="1589" y="67" width="4354" height="1631"/></clipPath><clipPath id="clip80"><rect x="1589" y="67" width="4354" height="1631"/></clipPath><clipPath id="clip81"><rect x="1589" y="67" width="4354" height="1631"/></clipPath><clipPath id="clip82"><rect x="1589" y="67" width="4354" height="1631"/></clipPath><clipPath id="clip83"><rect x="1589" y="67" width="4354" height="1631"/></clipPath><clipPath id="clip84"><rect x="1589" y="67" width="4354" height="1631"/></clipPath><clipPath id="clip85"><rect x="1589" y="67" width="4354" height="1631"/></clipPath><clipPath id="clip86"><rect x="1589" y="67" width="4354" height="1631"/></clipPath><clipPath id="clip87"><rect x="1589" y="67" width="4354" height="1631"/></clipPath><clipPath id="clip88"><rect x="1589" y="67" width="4354" height="1631"/></clipPath><clipPath id="clip89"><rect x="1589" y="67" width="4354" height="1631"/></clipPath><clipPath id="clip90"><rect x="1589" y="67" width="4354" height="1631"/></clipPath><clipPath id="clip91"><rect x="1589" y="67" width="4354" height="1631"/></clipPath><clipPath id="clip92"><rect x="1589" y="67" width="4354" height="1631"/></clipPath><clipPath id="clip93"><rect x="1589" y="67" width="4354" height="1631"/></clipPath><clipPath id="clip94"><rect x="1589" y="67" width="4354" height="1631"/></clipPath><clipPath id="clip95"><rect x="1589" y="67" width="4354" height="1631"/></clipPath><clipPath id="clip96"><rect x="1589" y="67" width="4354" height="1631"/></clipPath><clipPath id="clip97"><rect x="1589" y="67" width="4354" height="1631"/></clipPath><clipPath id="clip98"><rect x="1589" y="67" width="4354" height="1631"/></clipPath><clipPath id="clip99"><rect x="1589" y="67" width="4354" height="1631"/></clipPath><clipPath id="clip100"><rect x="1589" y="67" width="4354" height="1631"/></clipPath><clipPath id="clip101"><rect x="1589" y="67" width="4354" height="1631"/></clipPath><clipPath id="clip102"><rect x="1589" y="67" width="4354" height="1631"/></clipPath><clipPath id="clip103"><rect x="1589" y="67" width="4354" height="1631"/></clipPath><clipPath id="clip104"><rect x="1589" y="67" width="4354" height="1631"/></clipPath><clipPath id="clip105"><rect x="1589" y="67" width="4354" height="1631"/></clipPath><clipPath id="clip106"><rect x="1589" y="67" width="4354" height="1631"/></clipPath><clipPath id="clip107"><rect x="1589" y="67" width="4354" height="1631"/></clipPath><clipPath id="clip108"><rect x="1589" y="67" width="4354" height="1631"/></clipPath><clipPath id="clip109"><rect x="1589" y="67" width="4354" height="1631"/></clipPath><clipPath id="clip110"><rect x="1589" y="67" width="4354" height="1631"/></clipPath><clipPath id="clip111"><rect x="1589" y="67" width="4354" height="1631"/></clipPath><clipPath id="clip112"><rect x="1589" y="67" width="4354" height="1631"/></clipPath><clipPath id="clip113"><rect x="1589" y="67" width="4354" height="1631"/></clipPath><clipPath id="clip114"><rect x="1589" y="67" width="4354" height="1631"/></clipPath><clipPath id="clip115"><rect x="1589" y="67" width="4354" height="1631"/></clipPath><clipPath id="clip116"><rect x="1589" y="67" width="4354" height="1631"/></clipPath><clipPath id="clip117"><rect x="1589" y="67" width="4354" height="1631"/></clipPath><clipPath id="clip118"><rect x="1589" y="67" width="4354" height="1631"/></clipPath><clipPath id="clip119"><rect x="1589" y="67" width="4354" height="1631"/></clipPath><clipPath id="clip120"><rect x="1589" y="67" width="4354" height="1631"/></clipPath><clipPath id="clip121"><rect x="1589" y="67" width="4354" height="1631"/></clipPath><clipPath id="clip122"><rect x="1589" y="67" width="4354" height="1631"/></clipPath><clipPath id="clip123"><rect x="1589" y="67" width="4354" height="1631"/></clipPath><clipPath id="clip124"><rect x="1589" y="67" width="4354" height="1631"/></clipPath><clipPath id="clip125"><rect x="1589" y="67" width="4354" height="1631"/></clipPath><clipPath id="clip126"><rect x="1589" y="67" width="4354" height="1631"/></clipPath><clipPath id="clip127"><rect x="1589" y="67" width="4354" height="1631"/></clipPath><clipPath id="clip128"><rect x="1589" y="67" width="4354" height="1631"/></clipPath></defs><g clip-path="url(#clip0)" transform="translate(-1589 -66)"><rect x="1590" y="67" width="4353" height="1631" fill="#FFFFFF"/><g clip-path="url(#clip1)"><path d="M1930.5 1031.53 5893.5 1031.53M1930.5 901.53 5893.5 901.53M1930.5 770.525 5893.5 770.525M1930.5 639.521 5893.5 639.521M1930.5 509.517 5893.5 509.517M1930.5 378.513 5893.5 378.513M1930.5 248.508 5893.5 248.508M1930.5 117.5 5893.5 117.5" stroke="#D9D9D9" stroke-width="3.4375" stroke-linejoin="round" stroke-miterlimit="10" fill="none"/></g><g clip-path="url(#clip2)"><path d="M1932.06 275.009 1999.07 275.009 1999.07 1162 1932.06 1162ZM2002.07 362.012 2068.07 362.012 2068.07 1162 2002.07 1162ZM2072.07 689.023 2138.07 689.023 2138.07 1162 2072.07 1162ZM2141.07 757.025 2207.07 757.025 2207.07 1162 2141.07 1162ZM2211.07 843.028 2277.07 843.028 2277.07 1162 2211.07 1162ZM2280.07 899.029 2346.08 899.029 2346.08 1162 2280.07 1162ZM2350.08 904.03 2416.08 904.03 2416.08 1162 2350.08 1162ZM2419.08 906.03 2485.08 906.03 2485.08 1162 2419.08 1162ZM2489.08 978.032 2555.08 978.032 2555.08 1162 2489.08 1162ZM2558.08 995.033 2624.09 995.033 2624.09 1162 2558.08 1162ZM2628.09 1014.03 2694.09 1014.03 2694.09 1162 2628.09 1162ZM2697.09 1022.03 2763.09 1022.03 2763.09 1162 2697.09 1162ZM2767.09 1037.03 2833.09 1037.03 2833.09 1162 2767.09 1162ZM2836.09 1046.03 2902.1 1046.03 2902.1 1162 2836.09 1162ZM2906.1 1050.03 2972.1 1050.03 2972.1 1162 2906.1 1162ZM2975.1 1054.03 3041.1 1054.03 3041.1 1162 2975.1 1162ZM3045.1 1060.03 3111.1 1060.03 3111.1 1162 3045.1 1162ZM3114.1 1061.03 3180.1 1061.03 3180.1 1162 3114.1 1162ZM3184.1 1066.03 3250.11 1066.03 3250.11 1162 3184.1 1162ZM3253.11 1073.04 3319.11 1073.04 3319.11 1162 3253.11 1162ZM3323.11 1088.04 3389.11 1088.04 3389.11 1162 3323.11 1162ZM3392.11 1091.04 3458.11 1091.04 3458.11 1162 3392.11 1162ZM3462.11 1094.04 3528.12 1094.04 3528.12 1162 3462.11 1162ZM3531.12 1095.04 3597.12 1095.04 3597.12 1162 3531.12 1162ZM3601.12 1096.04 3667.12 1096.04 3667.12 1162 3601.12 1162ZM3670.12 1098.04 3736.12 1098.04 3736.12 1162 3670.12 1162ZM3740.12 1101.04 3806.13 1101.04 3806.13 1162 3740.12 1162ZM3809.13 1103.04 3875.13 1103.04 3875.13 1162 3809.13 1162ZM3879.13 1104.04 3945.13 1104.04 3945.13 1162 3879.13 1162ZM3948.13 1104.04 4014.13 1104.04 4014.13 1162 3948.13 1162ZM4018.13 1105.04 4084.13 1105.04 4084.13 1162 4018.13 1162ZM4087.13 1107.04 4153.14 1107.04 4153.14 1162 4087.13 1162ZM4157.14 1109.04 4223.14 1109.04 4223.14 1162 4157.14 1162ZM4226.14 1112.04 4292.14 1112.04 4292.14 1162 4226.14 1162ZM4296.14 1113.04 4362.14 1113.04 4362.14 1162 4296.14 1162ZM4365.14 1116.04 4431.15 1116.04 4431.15 1162 4365.14 1162ZM4435.15 1118.04 4501.15 1118.04 4501.15 1162 4435.15 1162ZM4504.15 1118.04 4571.15 1118.04 4571.15 1162 4504.15 1162ZM4574.15 1127.04 4640.15 1127.04 4640.15 1162 4574.15 1162ZM4643.15 1132.04 4710.15 1132.04 4710.15 1162 4643.15 1162ZM4713.15 1134.04 4779.16 1134.04 4779.16 1162 4713.15 1162ZM4782.16 1135.04 4849.16 1135.04 4849.16 1162 4782.16 1162ZM4852.16 1136.04 4918.16 1136.04 4918.16 1162 4852.16 1162ZM4921.16 1136.04 4988.16 1136.04 4988.16 1162 4921.16 1162ZM4991.16 1138.04 5057.17 1138.04 5057.17 1162 4991.16 1162ZM5060.17 1139.04 5127.17 1139.04 5127.17 1162 5060.17 1162ZM5130.17 1140.04 5196.17 1140.04 5196.17 1162 5130.17 1162ZM5199.17 1143.04 5266.17 1143.04 5266.17 1162 5199.17 1162ZM5269.17 1144.04 5335.18 1144.04 5335.18 1162 5269.17 1162ZM5338.18 1146.04 5405.18 1146.04 5405.18 1162 5338.18 1162ZM5408.18 1150.04 5474.18 1150.04 5474.18 1162 5408.18 1162ZM5477.18 1155.04 5544.18 1155.04 5544.18 1162 5477.18 1162ZM5547.18 1156.04 5613.18 1156.04 5613.18 1162 5547.18 1162ZM5616.18 1157.04 5683.19 1157.04 5683.19 1162 5616.18 1162ZM5686.19 1160.04 5752.19 1160.04 5752.19 1162 5686.19 1162ZM5755.19 1161.04 5822.19 1161.04 5822.19 1162 5755.19 1162ZM5825.19 1161 5891.19 1161 5891.19 1162 5825.19 1162Z" fill="#4472C4"/></g><g clip-path="url(#clip3)"><path d="M1930.5 1162.5 5893.5 1162.5" stroke="#D9D9D9" stroke-width="3.4375" stroke-linejoin="round" stroke-miterlimit="10" fill="none" fill-rule="evenodd"/></g><g clip-path="url(#clip4)"><text fill="#404040" font-family="Verdana,Verdana_MSFontService,sans-serif" font-weight="400" font-size="41" transform="matrix(6.12323e-17 -1 1 6.12323e-17 1981.58 247)">13.59%</text></g><g clip-path="url(#clip5)"><text fill="#404040" font-family="Verdana,Verdana_MSFontService,sans-serif" font-weight="400" font-size="41" transform="matrix(6.12323e-17 -1 1 6.12323e-17 2051.09 334)">12.26%</text></g><g clip-path="url(#clip6)"><text fill="#404040" font-family="Verdana,Verdana_MSFontService,sans-serif" font-weight="400" font-size="41" transform="matrix(6.12323e-17 -1 1 6.12323e-17 2120.6 662)">7.24%</text></g><g clip-path="url(#clip7)"><text fill="#404040" font-family="Verdana,Verdana_MSFontService,sans-serif" font-weight="400" font-size="41" transform="matrix(6.12323e-17 -1 1 6.12323e-17 2190.11 730)">6.20%</text></g><g clip-path="url(#clip8)"><text fill="#404040" font-family="Verdana,Verdana_MSFontService,sans-serif" font-weight="400" font-size="41" transform="matrix(6.12323e-17 -1 1 6.12323e-17 2259.62 815)">4.89%</text></g><g clip-path="url(#clip9)"><text fill="#404040" font-family="Verdana,Verdana_MSFontService,sans-serif" font-weight="400" font-size="41" transform="matrix(6.12323e-17 -1 1 6.12323e-17 2329.13 871)">4.03%</text></g><g clip-path="url(#clip10)"><text fill="#404040" font-family="Verdana,Verdana_MSFontService,sans-serif" font-weight="400" font-size="41" transform="matrix(6.12323e-17 -1 1 6.12323e-17 2398.65 877)">3.95%</text></g><g clip-path="url(#clip11)"><text fill="#404040" font-family="Verdana,Verdana_MSFontService,sans-serif" font-weight="400" font-size="41" transform="matrix(6.12323e-17 -1 1 6.12323e-17 2468.16 879)">3.92%</text></g><g clip-path="url(#clip12)"><text fill="#404040" font-family="Verdana,Verdana_MSFontService,sans-serif" font-weight="400" font-size="41" transform="matrix(6.12323e-17 -1 1 6.12323e-17 2537.67 951)">2.82%</text></g><g clip-path="url(#clip13)"><text fill="#404040" font-family="Verdana,Verdana_MSFontService,sans-serif" font-weight="400" font-size="41" transform="matrix(6.12323e-17 -1 1 6.12323e-17 2607.18 967)">2.57%</text></g><g clip-path="url(#clip14)"><text fill="#404040" font-family="Verdana,Verdana_MSFontService,sans-serif" font-weight="400" font-size="41" transform="matrix(6.12323e-17 -1 1 6.12323e-17 2676.69 987)">2.27%</text></g><g clip-path="url(#clip15)"><text fill="#404040" font-family="Verdana,Verdana_MSFontService,sans-serif" font-weight="400" font-size="41" transform="matrix(6.12323e-17 -1 1 6.12323e-17 2746.2 995)">2.15%</text></g><g clip-path="url(#clip16)"><text fill="#404040" font-family="Verdana,Verdana_MSFontService,sans-serif" font-weight="400" font-size="41" transform="matrix(6.12323e-17 -1 1 6.12323e-17 2815.71 1010)">1.91%</text></g><g clip-path="url(#clip17)"><text fill="#404040" font-family="Verdana,Verdana_MSFontService,sans-serif" font-weight="400" font-size="41" transform="matrix(6.12323e-17 -1 1 6.12323e-17 2885.22 1018)">1.78%</text></g><g clip-path="url(#clip18)"><text fill="#404040" font-family="Verdana,Verdana_MSFontService,sans-serif" font-weight="400" font-size="41" transform="matrix(6.12323e-17 -1 1 6.12323e-17 2954.73 1022)">1.72%</text></g><g clip-path="url(#clip19)"><text fill="#404040" font-family="Verdana,Verdana_MSFontService,sans-serif" font-weight="400" font-size="41" transform="matrix(6.12323e-17 -1 1 6.12323e-17 3024.24 1027)">1.65%</text></g><g clip-path="url(#clip20)"><text fill="#404040" font-family="Verdana,Verdana_MSFontService,sans-serif" font-weight="400" font-size="41" transform="matrix(6.12323e-17 -1 1 6.12323e-17 3093.75 1033)">1.56%</text></g><g clip-path="url(#clip21)"><text fill="#404040" font-family="Verdana,Verdana_MSFontService,sans-serif" font-weight="400" font-size="41" transform="matrix(6.12323e-17 -1 1 6.12323e-17 3163.27 1033)">1.55%</text></g><g clip-path="url(#clip22)"><text fill="#404040" font-family="Verdana,Verdana_MSFontService,sans-serif" font-weight="400" font-size="41" transform="matrix(6.12323e-17 -1 1 6.12323e-17 3232.78 1039)">1.47%</text></g><g clip-path="url(#clip23)"><text fill="#404040" font-family="Verdana,Verdana_MSFontService,sans-serif" font-weight="400" font-size="41" transform="matrix(6.12323e-17 -1 1 6.12323e-17 3302.29 1045)">1.37%</text></g><g clip-path="url(#clip24)"><text fill="#404040" font-family="Verdana,Verdana_MSFontService,sans-serif" font-weight="400" font-size="41" transform="matrix(6.12323e-17 -1 1 6.12323e-17 3371.8 1060)">1.14%</text></g><g clip-path="url(#clip25)"><text fill="#404040" font-family="Verdana,Verdana_MSFontService,sans-serif" font-weight="400" font-size="41" transform="matrix(6.12323e-17 -1 1 6.12323e-17 3441.31 1064)">1.09%</text></g><g clip-path="url(#clip26)"><text fill="#404040" font-family="Verdana,Verdana_MSFontService,sans-serif" font-weight="400" font-size="41" transform="matrix(6.12323e-17 -1 1 6.12323e-17 3510.82 1067)">1.04%</text></g><g clip-path="url(#clip27)"><text fill="#404040" font-family="Verdana,Verdana_MSFontService,sans-serif" font-weight="400" font-size="41" transform="matrix(6.12323e-17 -1 1 6.12323e-17 3580.33 1067)">1.03%</text></g><g clip-path="url(#clip28)"><text fill="#404040" font-family="Verdana,Verdana_MSFontService,sans-serif" font-weight="400" font-size="41" transform="matrix(6.12323e-17 -1 1 6.12323e-17 3649.84 1068)">1.02%</text></g><g clip-path="url(#clip29)"><text fill="#404040" font-family="Verdana,Verdana_MSFontService,sans-serif" font-weight="400" font-size="41" transform="matrix(6.12323e-17 -1 1 6.12323e-17 3719.35 1070)">0.99%</text></g><g clip-path="url(#clip30)"><text fill="#404040" font-family="Verdana,Verdana_MSFontService,sans-serif" font-weight="400" font-size="41" transform="matrix(6.12323e-17 -1 1 6.12323e-17 3788.86 1074)">0.93%</text></g><g clip-path="url(#clip31)"><text fill="#404040" font-family="Verdana,Verdana_MSFontService,sans-serif" font-weight="400" font-size="41" transform="matrix(6.12323e-17 -1 1 6.12323e-17 3858.38 1076)">0.91%</text></g><g clip-path="url(#clip32)"><text fill="#404040" font-family="Verdana,Verdana_MSFontService,sans-serif" font-weight="400" font-size="41" transform="matrix(6.12323e-17 -1 1 6.12323e-17 3927.89 1076)">0.90%</text></g><g clip-path="url(#clip33)"><text fill="#404040" font-family="Verdana,Verdana_MSFontService,sans-serif" font-weight="400" font-size="41" transform="matrix(6.12323e-17 -1 1 6.12323e-17 3997.4 1077)">0.89%</text></g><g clip-path="url(#clip34)"><text fill="#404040" font-family="Verdana,Verdana_MSFontService,sans-serif" font-weight="400" font-size="41" transform="matrix(6.12323e-17 -1 1 6.12323e-17 4066.91 1078)">0.87%</text></g><g clip-path="url(#clip35)"><text fill="#404040" font-family="Verdana,Verdana_MSFontService,sans-serif" font-weight="400" font-size="41" transform="matrix(6.12323e-17 -1 1 6.12323e-17 4136.42 1080)">0.84%</text></g><g clip-path="url(#clip36)"><text fill="#404040" font-family="Verdana,Verdana_MSFontService,sans-serif" font-weight="400" font-size="41" transform="matrix(6.12323e-17 -1 1 6.12323e-17 4205.93 1082)">0.81%</text></g><g clip-path="url(#clip37)"><text fill="#404040" font-family="Verdana,Verdana_MSFontService,sans-serif" font-weight="400" font-size="41" transform="matrix(6.12323e-17 -1 1 6.12323e-17 4275.44 1085)">0.77%</text></g><g clip-path="url(#clip38)"><text fill="#404040" font-family="Verdana,Verdana_MSFontService,sans-serif" font-weight="400" font-size="41" transform="matrix(6.12323e-17 -1 1 6.12323e-17 4344.95 1086)">0.75%</text></g><g clip-path="url(#clip39)"><text fill="#404040" font-family="Verdana,Verdana_MSFontService,sans-serif" font-weight="400" font-size="41" transform="matrix(6.12323e-17 -1 1 6.12323e-17 4414.46 1088)">0.71%</text></g><g clip-path="url(#clip40)"><text fill="#404040" font-family="Verdana,Verdana_MSFontService,sans-serif" font-weight="400" font-size="41" transform="matrix(6.12323e-17 -1 1 6.12323e-17 4483.97 1091)">0.67%</text></g><g clip-path="url(#clip41)"><text fill="#404040" font-family="Verdana,Verdana_MSFontService,sans-serif" font-weight="400" font-size="41" transform="matrix(6.12323e-17 -1 1 6.12323e-17 4553.48 1091)">0.67%</text></g><g clip-path="url(#clip42)"><text fill="#404040" font-family="Verdana,Verdana_MSFontService,sans-serif" font-weight="400" font-size="41" transform="matrix(6.12323e-17 -1 1 6.12323e-17 4623 1100)">0.54%</text></g><g clip-path="url(#clip43)"><text fill="#404040" font-family="Verdana,Verdana_MSFontService,sans-serif" font-weight="400" font-size="41" transform="matrix(6.12323e-17 -1 1 6.12323e-17 4692.51 1104)">0.47%</text></g><g clip-path="url(#clip44)"><text fill="#404040" font-family="Verdana,Verdana_MSFontService,sans-serif" font-weight="400" font-size="41" transform="matrix(6.12323e-17 -1 1 6.12323e-17 4762.02 1107)">0.42%</text></g><g clip-path="url(#clip45)"><text fill="#404040" font-family="Verdana,Verdana_MSFontService,sans-serif" font-weight="400" font-size="41" transform="matrix(6.12323e-17 -1 1 6.12323e-17 4831.53 1108)">0.41%</text></g><g clip-path="url(#clip46)"><text fill="#404040" font-family="Verdana,Verdana_MSFontService,sans-serif" font-weight="400" font-size="41" transform="matrix(6.12323e-17 -1 1 6.12323e-17 4901.04 1108)">0.40%</text></g><g clip-path="url(#clip47)"><text fill="#404040" font-family="Verdana,Verdana_MSFontService,sans-serif" font-weight="400" font-size="41" transform="matrix(6.12323e-17 -1 1 6.12323e-17 4970.55 1109)">0.40%</text></g><g clip-path="url(#clip48)"><text fill="#404040" font-family="Verdana,Verdana_MSFontService,sans-serif" font-weight="400" font-size="41" transform="matrix(6.12323e-17 -1 1 6.12323e-17 5040.06 1110)">0.37%</text></g><g clip-path="url(#clip49)"><text fill="#404040" font-family="Verdana,Verdana_MSFontService,sans-serif" font-weight="400" font-size="41" transform="matrix(6.12323e-17 -1 1 6.12323e-17 5109.57 1111)">0.36%</text></g><g clip-path="url(#clip50)"><text fill="#404040" font-family="Verdana,Verdana_MSFontService,sans-serif" font-weight="400" font-size="41" transform="matrix(6.12323e-17 -1 1 6.12323e-17 5179.08 1112)">0.34%</text></g><g clip-path="url(#clip51)"><text fill="#404040" font-family="Verdana,Verdana_MSFontService,sans-serif" font-weight="400" font-size="41" transform="matrix(6.12323e-17 -1 1 6.12323e-17 5248.59 1116)">0.29%</text></g><g clip-path="url(#clip52)"><text fill="#404040" font-family="Verdana,Verdana_MSFontService,sans-serif" font-weight="400" font-size="41" transform="matrix(6.12323e-17 -1 1 6.12323e-17 5318.1 1116)">0.29%</text></g><g clip-path="url(#clip53)"><text fill="#404040" font-family="Verdana,Verdana_MSFontService,sans-serif" font-weight="400" font-size="41" transform="matrix(6.12323e-17 -1 1 6.12323e-17 5387.62 1118)">0.25%</text></g><g clip-path="url(#clip54)"><text fill="#404040" font-family="Verdana,Verdana_MSFontService,sans-serif" font-weight="400" font-size="41" transform="matrix(6.12323e-17 -1 1 6.12323e-17 5457.13 1122)">0.19%</text></g><g clip-path="url(#clip55)"><text fill="#404040" font-family="Verdana,Verdana_MSFontService,sans-serif" font-weight="400" font-size="41" transform="matrix(6.12323e-17 -1 1 6.12323e-17 5526.64 1127)">0.11%</text></g><g clip-path="url(#clip56)"><text fill="#404040" font-family="Verdana,Verdana_MSFontService,sans-serif" font-weight="400" font-size="41" transform="matrix(6.12323e-17 -1 1 6.12323e-17 5596.15 1129)">0.09%</text></g><g clip-path="url(#clip57)"><text fill="#404040" font-family="Verdana,Verdana_MSFontService,sans-serif" font-weight="400" font-size="41" transform="matrix(6.12323e-17 -1 1 6.12323e-17 5665.66 1130)">0.08%</text></g><g clip-path="url(#clip58)"><text fill="#404040" font-family="Verdana,Verdana_MSFontService,sans-serif" font-weight="400" font-size="41" transform="matrix(6.12323e-17 -1 1 6.12323e-17 5735.17 1133)">0.03%</text></g><g clip-path="url(#clip59)"><text fill="#404040" font-family="Verdana,Verdana_MSFontService,sans-serif" font-weight="400" font-size="41" transform="matrix(6.12323e-17 -1 1 6.12323e-17 5804.68 1133)">0.02%</text></g><g clip-path="url(#clip60)"><text fill="#404040" font-family="Verdana,Verdana_MSFontService,sans-serif" font-weight="400" font-size="41" transform="matrix(6.12323e-17 -1 1 6.12323e-17 5874.19 1134)">0.00%</text></g><g clip-path="url(#clip61)"><text fill="#595959" font-family="Verdana,Verdana_MSFontService,sans-serif" font-weight="400" font-size="41" transform="matrix(1 0 0 1 1753.95 1176)">0.00%</text></g><g clip-path="url(#clip62)"><text fill="#595959" font-family="Verdana,Verdana_MSFontService,sans-serif" font-weight="400" font-size="41" transform="matrix(1 0 0 1 1753.95 1045)">2.00%</text></g><g clip-path="url(#clip63)"><text fill="#595959" font-family="Verdana,Verdana_MSFontService,sans-serif" font-weight="400" font-size="41" transform="matrix(1 0 0 1 1753.95 915)">4.00%</text></g><g clip-path="url(#clip64)"><text fill="#595959" font-family="Verdana,Verdana_MSFontService,sans-serif" font-weight="400" font-size="41" transform="matrix(1 0 0 1 1753.95 784)">6.00%</text></g><g clip-path="url(#clip65)"><text fill="#595959" font-family="Verdana,Verdana_MSFontService,sans-serif" font-weight="400" font-size="41" transform="matrix(1 0 0 1 1753.95 654)">8.00%</text></g><g clip-path="url(#clip66)"><text fill="#595959" font-family="Verdana,Verdana_MSFontService,sans-serif" font-weight="400" font-size="41" transform="matrix(1 0 0 1 1727.73 523)">10.00%</text></g><g clip-path="url(#clip67)"><text fill="#595959" font-family="Verdana,Verdana_MSFontService,sans-serif" font-weight="400" font-size="41" transform="matrix(1 0 0 1 1727.73 392)">12.00%</text></g><g clip-path="url(#clip68)"><text fill="#595959" font-family="Verdana,Verdana_MSFontService,sans-serif" font-weight="400" font-size="41" transform="matrix(1 0 0 1 1727.73 262)">14.00%</text></g><g clip-path="url(#clip69)"><text fill="#595959" font-family="Verdana,Verdana_MSFontService,sans-serif" font-weight="400" font-size="41" transform="matrix(1 0 0 1 1727.73 131)">16.00%</text></g><g clip-path="url(#clip70)"><text fill="#595959" font-family="Verdana,Verdana_MSFontService,sans-serif" font-weight="400" font-size="41" transform="matrix(6.12323e-17 -1 1 6.12323e-17 1981.58 1260)">sky</text></g><g clip-path="url(#clip71)"><text fill="#595959" font-family="Verdana,Verdana_MSFontService,sans-serif" font-weight="400" font-size="41" transform="matrix(6.12323e-17 -1 1 6.12323e-17 2051.09 1409)">vegetation</text></g><g clip-path="url(#clip72)"><text fill="#595959" font-family="Verdana,Verdana_MSFontService,sans-serif" font-weight="400" font-size="41" transform="matrix(6.12323e-17 -1 1 6.12323e-17 2120.6 1328)">terrain</text></g><g clip-path="url(#clip73)"><text fill="#595959" font-family="Verdana,Verdana_MSFontService,sans-serif" font-weight="400" font-size="41" transform="matrix(6.12323e-17 -1 1 6.12323e-17 2190.11 1353)">building</text></g><g clip-path="url(#clip74)"><text fill="#595959" font-family="Verdana,Verdana_MSFontService,sans-serif" font-weight="400" font-size="41" transform="matrix(6.12323e-17 -1 1 6.12323e-17 2259.63 1432)">background</text></g><g clip-path="url(#clip75)"><text fill="#595959" font-family="Verdana,Verdana_MSFontService,sans-serif" font-weight="400" font-size="41" transform="matrix(6.12323e-17 -1 1 6.12323e-17 2329.14 1261)">sea</text></g><g clip-path="url(#clip76)"><text fill="#595959" font-family="Verdana,Verdana_MSFontService,sans-serif" font-weight="400" font-size="41" transform="matrix(6.12323e-17 -1 1 6.12323e-17 2398.65 1330)">person</text></g><g clip-path="url(#clip77)"><text fill="#595959" font-family="Verdana,Verdana_MSFontService,sans-serif" font-weight="400" font-size="41" transform="matrix(6.12323e-17 -1 1 6.12323e-17 2468.16 1277)">pole</text></g><g clip-path="url(#clip78)"><text fill="#595959" font-family="Verdana,Verdana_MSFontService,sans-serif" font-weight="400" font-size="41" transform="matrix(6.12323e-17 -1 1 6.12323e-17 2537.67 1301)">fence</text></g><g clip-path="url(#clip79)"><text fill="#595959" font-family="Verdana,Verdana_MSFontService,sans-serif" font-weight="400" font-size="41" transform="matrix(6.12323e-17 -1 1 6.12323e-17 2607.18 1285)">river</text></g><g clip-path="url(#clip80)"><text fill="#595959" font-family="Verdana,Verdana_MSFontService,sans-serif" font-weight="400" font-size="41" transform="matrix(6.12323e-17 -1 1 6.12323e-17 2676.69 1283)">road</text></g><g clip-path="url(#clip81)"><text fill="#595959" font-family="Verdana,Verdana_MSFontService,sans-serif" font-weight="400" font-size="41" transform="matrix(6.12323e-17 -1 1 6.12323e-17 2746.2 1282)">boat</text></g><g clip-path="url(#clip82)"><text fill="#595959" font-family="Verdana,Verdana_MSFontService,sans-serif" font-weight="400" font-size="41" transform="matrix(6.12323e-17 -1 1 6.12323e-17 2815.71 1320)">bridge</text></g><g clip-path="url(#clip83)"><text fill="#595959" font-family="Verdana,Verdana_MSFontService,sans-serif" font-weight="400" font-size="41" transform="matrix(6.12323e-17 -1 1 6.12323e-17 2885.22 1296)">snow</text></g><g clip-path="url(#clip84)"><text fill="#595959" font-family="Verdana,Verdana_MSFontService,sans-serif" font-weight="400" font-size="41" transform="matrix(6.12323e-17 -1 1 6.12323e-17 2954.73 1269)">pier</text></g><g clip-path="url(#clip85)"><text fill="#595959" font-family="Verdana,Verdana_MSFontService,sans-serif" font-weight="400" font-size="41" transform="matrix(6.12323e-17 -1 1 6.12323e-17 3024.25 1367)">sidewalk</text></g><g clip-path="url(#clip86)"><text fill="#595959" font-family="Verdana,Verdana_MSFontService,sans-serif" font-weight="400" font-size="41" transform="matrix(6.12323e-17 -1 1 6.12323e-17 3093.76 1263)">cliff</text></g><g clip-path="url(#clip87)"><text fill="#595959" font-family="Verdana,Verdana_MSFontService,sans-serif" font-weight="400" font-size="41" transform="matrix(6.12323e-17 -1 1 6.12323e-17 3163.27 1254)">car</text></g><g clip-path="url(#clip88)"><text fill="#595959" font-family="Verdana,Verdana_MSFontService,sans-serif" font-weight="400" font-size="41" transform="matrix(6.12323e-17 -1 1 6.12323e-17 3232.78 1378)">shoreline</text></g><g clip-path="url(#clip89)"><text fill="#595959" font-family="Verdana,Verdana_MSFontService,sans-serif" font-weight="400" font-size="41" transform="matrix(6.12323e-17 -1 1 6.12323e-17 3302.29 1298)">canal</text></g><g clip-path="url(#clip90)"><text fill="#595959" font-family="Verdana,Verdana_MSFontService,sans-serif" font-weight="400" font-size="41" transform="matrix(6.12323e-17 -1 1 6.12323e-17 3371.8 1352)">wetland</text></g><g clip-path="url(#clip91)"><text fill="#595959" font-family="Verdana,Verdana_MSFontService,sans-serif" font-weight="400" font-size="41" transform="matrix(6.12323e-17 -1 1 6.12323e-17 3441.31 1424)">breakwater</text></g><g clip-path="url(#clip92)"><text fill="#595959" font-family="Verdana,Verdana_MSFontService,sans-serif" font-weight="400" font-size="41" transform="matrix(6.12323e-17 -1 1 6.12323e-17 3510.82 1299)">levee</text></g><g clip-path="url(#clip93)"><text fill="#595959" font-family="Verdana,Verdana_MSFontService,sans-serif" font-weight="400" font-size="41" transform="matrix(6.12323e-17 -1 1 6.12323e-17 3580.33 1271)">wall</text></g><g clip-path="url(#clip94)"><text fill="#595959" font-family="Verdana,Verdana_MSFontService,sans-serif" font-weight="400" font-size="41" transform="matrix(6.12323e-17 -1 1 6.12323e-17 3649.84 1374)">reservoir</text></g><g clip-path="url(#clip95)"><text fill="#595959" font-family="Verdana,Verdana_MSFontService,sans-serif" font-weight="400" font-size="41" transform="matrix(6.12323e-17 -1 1 6.12323e-17 3719.35 1275)">lake</text></g><g clip-path="url(#clip96)"><text fill="#595959" font-family="Verdana,Verdana_MSFontService,sans-serif" font-weight="400" font-size="41" transform="matrix(6.12323e-17 -1 1 6.12323e-17 3788.87 1320)">marsh</text></g><g clip-path="url(#clip97)"><text fill="#595959" font-family="Verdana,Verdana_MSFontService,sans-serif" font-weight="400" font-size="41" transform="matrix(6.12323e-17 -1 1 6.12323e-17 3858.38 1280)">dam</text></g><g clip-path="url(#clip98)"><text fill="#595959" font-family="Verdana,Verdana_MSFontService,sans-serif" font-weight="400" font-size="41" transform="matrix(6.12323e-17 -1 1 6.12323e-17 3927.89 1354)">spillway</text></g><g clip-path="url(#clip99)"><text fill="#595959" font-family="Verdana,Verdana_MSFontService,sans-serif" font-weight="400" font-size="41" transform="matrix(6.12323e-17 -1 1 6.12323e-17 3997.4 1329)">puddle</text></g><g clip-path="url(#clip100)"><text fill="#595959" font-family="Verdana,Verdana_MSFontService,sans-serif" font-weight="400" font-size="41" transform="matrix(6.12323e-17 -1 1 6.12323e-17 4066.91 1411)">hot_spring</text></g><g clip-path="url(#clip101)"><text fill="#595959" font-family="Verdana,Verdana_MSFontService,sans-serif" font-weight="400" font-size="41" transform="matrix(6.12323e-17 -1 1 6.12323e-17 4136.42 1316)">rapids</text></g><g clip-path="url(#clip102)"><text fill="#595959" font-family="Verdana,Verdana_MSFontService,sans-serif" font-weight="400" font-size="41" transform="matrix(6.12323e-17 -1 1 6.12323e-17 4205.93 1275)">ship</text></g><g clip-path="url(#clip103)"><text fill="#595959" font-family="Verdana,Verdana_MSFontService,sans-serif" font-weight="400" font-size="41" transform="matrix(6.12323e-17 -1 1 6.12323e-17 4275.44 1421)">traffic_sign</text></g><g clip-path="url(#clip104)"><text fill="#595959" font-family="Verdana,Verdana_MSFontService,sans-serif" font-weight="400" font-size="41" transform="matrix(6.12323e-17 -1 1 6.12323e-17 4344.95 1369)">waterfall</text></g><g clip-path="url(#clip105)"><text fill="#595959" font-family="Verdana,Verdana_MSFontService,sans-serif" font-weight="400" font-size="41" transform="matrix(6.12323e-17 -1 1 6.12323e-17 4414.46 1404)">lighthouse</text></g><g clip-path="url(#clip106)"><text fill="#595959" font-family="Verdana,Verdana_MSFontService,sans-serif" font-weight="400" font-size="41" transform="matrix(6.12323e-17 -1 1 6.12323e-17 4483.98 1296)">truck</text></g><g clip-path="url(#clip107)"><text fill="#595959" font-family="Verdana,Verdana_MSFontService,sans-serif" font-weight="400" font-size="41" transform="matrix(6.12323e-17 -1 1 6.12323e-17 4553.49 1450)">water_tower</text></g><g clip-path="url(#clip108)"><text fill="#595959" font-family="Verdana,Verdana_MSFontService,sans-serif" font-weight="400" font-size="41" transform="matrix(6.12323e-17 -1 1 6.12323e-17 4623 1291)">flood</text></g><g clip-path="url(#clip109)"><text fill="#595959" font-family="Verdana,Verdana_MSFontService,sans-serif" font-weight="400" font-size="41" transform="matrix(6.12323e-17 -1 1 6.12323e-17 4692.51 1287)">fjord</text></g><g clip-path="url(#clip110)"><text fill="#595959" font-family="Verdana,Verdana_MSFontService,sans-serif" font-weight="400" font-size="41" transform="matrix(6.12323e-17 -1 1 6.12323e-17 4762.02 1291)">ditch</text></g><g clip-path="url(#clip111)"><text fill="#595959" font-family="Verdana,Verdana_MSFontService,sans-serif" font-weight="400" font-size="41" transform="matrix(6.12323e-17 -1 1 6.12323e-17 4831.53 1348)">glaciers</text></g><g clip-path="url(#clip112)"><text fill="#595959" font-family="Verdana,Verdana_MSFontService,sans-serif" font-weight="400" font-size="41" transform="matrix(6.12323e-17 -1 1 6.12323e-17 4901.04 1560)">offshore_platform</text></g><g clip-path="url(#clip113)"><text fill="#595959" font-family="Verdana,Verdana_MSFontService,sans-serif" font-weight="400" font-size="41" transform="matrix(6.12323e-17 -1 1 6.12323e-17 4970.55 1350)">pipeline</text></g><g clip-path="url(#clip114)"><text fill="#595959" font-family="Verdana,Verdana_MSFontService,sans-serif" font-weight="400" font-size="41" transform="matrix(6.12323e-17 -1 1 6.12323e-17 5040.06 1330)">bicycle</text></g><g clip-path="url(#clip115)"><text fill="#595959" font-family="Verdana,Verdana_MSFontService,sans-serif" font-weight="400" font-size="41" transform="matrix(6.12323e-17 -1 1 6.12323e-17 5109.57 1398)">mangrove</text></g><g clip-path="url(#clip116)"><text fill="#595959" font-family="Verdana,Verdana_MSFontService,sans-serif" font-weight="400" font-size="41" transform="matrix(6.12323e-17 -1 1 6.12323e-17 5179.08 1332)">culvert</text></g><g clip-path="url(#clip117)"><text fill="#595959" font-family="Verdana,Verdana_MSFontService,sans-serif" font-weight="400" font-size="41" transform="matrix(6.12323e-17 -1 1 6.12323e-17 5248.6 1456)">cypress_tree</text></g><g clip-path="url(#clip118)"><text fill="#595959" font-family="Verdana,Verdana_MSFontService,sans-serif" font-weight="400" font-size="41" transform="matrix(6.12323e-17 -1 1 6.12323e-17 5318.11 1513)">swimming_pool</text></g><g clip-path="url(#clip119)"><text fill="#595959" font-family="Verdana,Verdana_MSFontService,sans-serif" font-weight="400" font-size="41" transform="matrix(6.12323e-17 -1 1 6.12323e-17 5387.62 1371)">umbrella</text></g><g clip-path="url(#clip120)"><text fill="#595959" font-family="Verdana,Verdana_MSFontService,sans-serif" font-weight="400" font-size="41" transform="matrix(6.12323e-17 -1 1 6.12323e-17 5457.13 1414)">water_well</text></g><g clip-path="url(#clip121)"><text fill="#595959" font-family="Verdana,Verdana_MSFontService,sans-serif" font-weight="400" font-size="41" transform="matrix(6.12323e-17 -1 1 6.12323e-17 5526.64 1286)">train</text></g><g clip-path="url(#clip122)"><text fill="#595959" font-family="Verdana,Verdana_MSFontService,sans-serif" font-weight="400" font-size="41" transform="matrix(6.12323e-17 -1 1 6.12323e-17 5596.15 1414)">river_delta</text></g><g clip-path="url(#clip123)"><text fill="#595959" font-family="Verdana,Verdana_MSFontService,sans-serif" font-weight="400" font-size="41" transform="matrix(6.12323e-17 -1 1 6.12323e-17 5665.66 1263)">bus</text></g><g clip-path="url(#clip124)"><text fill="#595959" font-family="Verdana,Verdana_MSFontService,sans-serif" font-weight="400" font-size="41" transform="matrix(6.12323e-17 -1 1 6.12323e-17 5735.17 1417)">motorcycle</text></g><g clip-path="url(#clip125)"><text fill="#595959" font-family="Verdana,Verdana_MSFontService,sans-serif" font-weight="400" font-size="41" transform="matrix(6.12323e-17 -1 1 6.12323e-17 5804.68 1445)">fire_hydrant</text></g><g clip-path="url(#clip126)"><text fill="#595959" font-family="Verdana,Verdana_MSFontService,sans-serif" font-weight="400" font-size="41" transform="matrix(6.12323e-17 -1 1 6.12323e-17 5874.19 1495)">parking_meter</text></g><g clip-path="url(#clip127)"><text fill="#595959" font-family="Verdana,Verdana_MSFontService,sans-serif" font-weight="400" font-size="55" transform="matrix(6.12323e-17 -1 1 6.12323e-17 1702.13 874)">Number of Pixels</text></g><g clip-path="url(#clip128)"><text fill="#595959" font-family="Verdana,Verdana_MSFontService,sans-serif" font-weight="400" font-size="55" transform="matrix(1 0 0 1 3678.94 1629)">ATLANTIS Labels</text></g><rect x="1590.5" y="67.4999" width="4353" height="1631" stroke="#D9D9D9" stroke-width="3.4375" stroke-linejoin="round" stroke-miterlimit="10" fill="none"/></g></svg>