<svg width="2502" height="1394" xmlns="http://www.w3.org/2000/svg" xmlns:xlink="http://www.w3.org/1999/xlink" overflow="hidden"><defs><clipPath id="clip0"><rect x="1835" y="358" width="2502" height="1394"/></clipPath><clipPath id="clip1"><rect x="1835" y="359" width="2499" height="1390"/></clipPath><clipPath id="clip2"><rect x="1835" y="359" width="2499" height="1390"/></clipPath><clipPath id="clip3"><rect x="1835" y="359" width="2499" height="1390"/></clipPath><clipPath id="clip4"><rect x="1835" y="359" width="2499" height="1390"/></clipPath><clipPath id="clip5"><rect x="1835" y="359" width="2499" height="1390"/></clipPath><clipPath id="clip6"><rect x="2169" y="409" width="2075" height="1125"/></clipPath><clipPath id="clip7"><rect x="1835" y="359" width="2499" height="1390"/></clipPath><clipPath id="clip8"><rect x="1835" y="359" width="2499" height="1390"/></clipPath><clipPath id="clip9"><rect x="1835" y="359" width="2499" height="1390"/></clipPath><clipPath id="clip10"><rect x="1835" y="359" width="2499" height="1390"/></clipPath><clipPath id="clip11"><rect x="1835" y="359" width="2499" height="1390"/></clipPath><clipPath id="clip12"><rect x="1835" y="359" width="2499" height="1390"/></clipPath><clipPath id="clip13"><rect x="1835" y="359" width="2499" height="1390"/></clipPath><clipPath id="clip14"><rect x="1835" y="359" width="2499" height="1390"/></clipPath><clipPath id="clip15"><rect x="1835" y="359" width="2499" height="1390"/></clipPath><clipPath id="clip16"><rect x="1835" y="359" width="2499" height="1390"/></clipPath><clipPath id="clip17"><rect x="1835" y="359" width="2499" height="1390"/></clipPath><clipPath id="clip18"><rect x="1835" y="359" width="2499" height="1390"/></clipPath><clipPath id="clip19"><rect x="1835" y="359" width="2499" height="1390"/></clipPath><clipPath id="clip20"><rect x="1835" y="359" width="2499" height="1390"/></clipPath><clipPath id="clip21"><rect x="1835" y="359" width="2499" height="1390"/></clipPath><clipPath id="clip22"><rect x="1835" y="359" width="2499" height="1390"/></clipPath><clipPath id="clip23"><rect x="1835" y="359" width="2499" height="1390"/></clipPath><clipPath id="clip24"><rect x="1835" y="359" width="2499" height="1390"/></clipPath><clipPath id="clip25"><rect x="1835" y="359" width="2499" height="1390"/></clipPath><clipPath id="clip26"><rect x="1835" y="359" width="2499" height="1390"/></clipPath><clipPath id="clip27"><rect x="1835" y="359" width="2499" height="1390"/></clipPath><clipPath id="clip28"><rect x="1835" y="359" width="2499" height="1390"/></clipPath></defs><g clip-path="url(#clip0)" transform="translate(-1835 -358)"><rect x="1836" y="359" width="2499" height="1391" fill="#FFFFFF"/><g clip-path="url(#clip1)"><path d="M2169.5 1409.55 4244.5 1409.55M2169.5 1284.54 4244.5 1284.54M2169.5 1159.54 4244.5 1159.54M2169.5 1034.53 4244.5 1034.53M2169.5 909.53 4244.5 909.53M2169.5 784.526 4244.5 784.526M2169.5 659.522 4244.5 659.522M2169.5 534.518 4244.5 534.518M2169.5 409.5 4244.5 409.5" stroke="#D9D9D9" stroke-width="3.4375" stroke-linejoin="round" stroke-miterlimit="10" fill="none"/></g><g clip-path="url(#clip2)"><path d="M2466.58 409.5 2466.58 1534.5M2762.59 409.5 2762.59 1534.5M3058.6 409.5 3058.6 1534.5M3355.61 409.5 3355.61 1534.5M3651.62 409.5 3651.62 1534.5M3948.63 409.5 3948.63 1534.5M4244.5 409.5 4244.5 1534.5" stroke="#D9D9D9" stroke-width="3.4375" stroke-linejoin="round" stroke-miterlimit="10" fill="none"/></g><g clip-path="url(#clip3)"><path d="M0 0 0.000360892 1125" stroke="#BFBFBF" stroke-width="3.4375" stroke-linejoin="round" stroke-miterlimit="10" fill="none" fill-rule="evenodd" transform="matrix(1 0 0 -1 2169.5 1534.5)"/></g><g clip-path="url(#clip4)"><path d="M2169.5 1534.5 4244.5 1534.5" stroke="#BFBFBF" stroke-width="3.4375" stroke-linejoin="round" stroke-miterlimit="10" fill="none" fill-rule="evenodd"/></g><g clip-path="url(#clip5)"><path d="M3319.12 1268.72C3319.12 1274.79 3314.2 1279.72 3308.12 1279.72 3302.05 1279.72 3297.12 1274.79 3297.12 1268.72 3297.12 1262.64 3302.05 1257.72 3308.12 1257.72 3314.2 1257.72 3319.12 1262.64 3319.12 1268.72Z" stroke="#ED7D31" stroke-width="9.16667" stroke-linejoin="round" stroke-miterlimit="10" fill="#ED7D31"/><path d="M2910.12 1067.72C2910.12 1073.79 2905.2 1078.72 2899.12 1078.72 2893.05 1078.72 2888.12 1073.79 2888.12 1067.72 2888.12 1061.64 2893.05 1056.72 2899.12 1056.72 2905.2 1056.72 2910.12 1061.64 2910.12 1067.72Z" stroke="#ED7D31" stroke-width="9.16667" stroke-linejoin="round" stroke-miterlimit="10" fill="#ED7D31"/><path d="M4072.12 1199.72C4072.12 1205.79 4067.2 1210.72 4061.12 1210.72 4055.05 1210.72 4050.12 1205.79 4050.12 1199.72 4050.12 1193.64 4055.05 1188.72 4061.12 1188.72 4067.2 1188.72 4072.12 1193.64 4072.12 1199.72Z" stroke="#ED7D31" stroke-width="9.16667" stroke-linejoin="round" stroke-miterlimit="10" fill="#ED7D31"/><path d="M2595.12 1152.72C2595.12 1158.79 2590.2 1163.72 2584.12 1163.72 2578.05 1163.72 2573.13 1158.79 2573.13 1152.72 2573.13 1146.64 2578.05 1141.72 2584.12 1141.72 2590.2 1141.72 2595.12 1146.64 2595.12 1152.72Z" stroke="#ED7D31" stroke-width="9.16667" stroke-linejoin="round" stroke-miterlimit="10" fill="#ED7D31"/><path d="M2601.12 1450.72C2601.12 1456.79 2596.2 1461.72 2590.12 1461.72 2584.05 1461.72 2579.12 1456.79 2579.12 1450.72 2579.12 1444.64 2584.05 1439.72 2590.12 1439.72 2596.2 1439.72 2601.12 1444.64 2601.12 1450.72Z" stroke="#ED7D31" stroke-width="9.16667" stroke-linejoin="round" stroke-miterlimit="10" fill="#ED7D31"/><path d="M2601.12 1462.72C2601.12 1468.79 2596.2 1473.72 2590.12 1473.72 2584.05 1473.72 2579.12 1468.79 2579.12 1462.72 2579.12 1456.64 2584.05 1451.72 2590.12 1451.72 2596.2 1451.72 2601.12 1456.64 2601.12 1462.72Z" stroke="#ED7D31" stroke-width="9.16667" stroke-linejoin="round" stroke-miterlimit="10" fill="#ED7D31"/><path d="M3034.12 1312.72C3034.12 1318.79 3029.2 1323.72 3023.12 1323.72 3017.05 1323.72 3012.12 1318.79 3012.12 1312.72 3012.12 1306.64 3017.05 1301.72 3023.12 1301.72 3029.2 1301.72 3034.12 1306.64 3034.12 1312.72Z" stroke="#ED7D31" stroke-width="9.16667" stroke-linejoin="round" stroke-miterlimit="10" fill="#ED7D31"/><path d="M2945.12 1430.72C2945.12 1436.79 2940.2 1441.72 2934.12 1441.72 2928.05 1441.72 2923.12 1436.79 2923.12 1430.72 2923.12 1424.64 2928.05 1419.72 2934.12 1419.72 2940.2 1419.72 2945.12 1424.64 2945.12 1430.72Z" stroke="#ED7D31" stroke-width="9.16667" stroke-linejoin="round" stroke-miterlimit="10" fill="#ED7D31"/><path d="M2969.12 1419.72C2969.12 1425.79 2964.2 1430.72 2958.12 1430.72 2952.05 1430.72 2947.13 1425.79 2947.13 1419.72 2947.13 1413.64 2952.05 1408.72 2958.12 1408.72 2964.2 1408.72 2969.12 1413.64 2969.12 1419.72Z" stroke="#ED7D31" stroke-width="9.16667" stroke-linejoin="round" stroke-miterlimit="10" fill="#ED7D31"/><path d="M3147.12 1402.72C3147.12 1408.79 3142.2 1413.72 3136.12 1413.72 3130.05 1413.72 3125.12 1408.79 3125.12 1402.72 3125.12 1396.64 3130.05 1391.72 3136.12 1391.72 3142.2 1391.72 3147.12 1396.64 3147.12 1402.72Z" stroke="#ED7D31" stroke-width="9.16667" stroke-linejoin="round" stroke-miterlimit="10" fill="#ED7D31"/><path d="M2844.12 1434.72C2844.12 1440.79 2839.2 1445.72 2833.12 1445.72 2827.05 1445.72 2822.12 1440.79 2822.12 1434.72 2822.12 1428.64 2827.05 1423.72 2833.12 1423.72 2839.2 1423.72 2844.12 1428.64 2844.12 1434.72Z" stroke="#ED7D31" stroke-width="9.16667" stroke-linejoin="round" stroke-miterlimit="10" fill="#ED7D31"/><path d="M3734.12 1320.72C3734.12 1326.79 3729.2 1331.72 3723.12 1331.72 3717.05 1331.72 3712.12 1326.79 3712.12 1320.72 3712.12 1314.64 3717.05 1309.72 3723.12 1309.72 3729.2 1309.72 3734.12 1314.64 3734.12 1320.72Z" stroke="#ED7D31" stroke-width="9.16667" stroke-linejoin="round" stroke-miterlimit="10" fill="#ED7D31"/><path d="M3372.12 1293.72C3372.12 1299.79 3367.2 1304.72 3361.12 1304.72 3355.05 1304.72 3350.12 1299.79 3350.12 1293.72 3350.12 1287.64 3355.05 1282.72 3361.12 1282.72 3367.2 1282.72 3372.12 1287.64 3372.12 1293.72Z" stroke="#ED7D31" stroke-width="9.16667" stroke-linejoin="round" stroke-miterlimit="10" fill="#ED7D31"/><path d="M2619.12 1280.72C2619.12 1286.79 2614.2 1291.72 2608.12 1291.72 2602.05 1291.72 2597.12 1286.79 2597.12 1280.72 2597.12 1274.64 2602.05 1269.72 2608.12 1269.72 2614.2 1269.72 2619.12 1274.64 2619.12 1280.72Z" stroke="#ED7D31" stroke-width="9.16667" stroke-linejoin="round" stroke-miterlimit="10" fill="#ED7D31"/><path d="M2998.12 1360.72C2998.12 1366.79 2993.2 1371.72 2987.12 1371.72 2981.05 1371.72 2976.12 1366.79 2976.12 1360.72 2976.12 1354.64 2981.05 1349.72 2987.12 1349.72 2993.2 1349.72 2998.12 1354.64 2998.12 1360.72Z" stroke="#ED7D31" stroke-width="9.16667" stroke-linejoin="round" stroke-miterlimit="10" fill="#ED7D31"/><path d="M2785.12 1446.72C2785.12 1452.79 2780.2 1457.72 2774.12 1457.72 2768.05 1457.72 2763.12 1452.79 2763.12 1446.72 2763.12 1440.64 2768.05 1435.72 2774.12 1435.72 2780.2 1435.72 2785.12 1440.64 2785.12 1446.72Z" stroke="#ED7D31" stroke-width="9.16667" stroke-linejoin="round" stroke-miterlimit="10" fill="#ED7D31"/><path d="M3004.12 1306.72C3004.12 1312.79 2999.2 1317.72 2993.12 1317.72 2987.05 1317.72 2982.12 1312.79 2982.12 1306.72 2982.12 1300.64 2987.05 1295.72 2993.12 1295.72 2999.2 1295.72 3004.12 1300.64 3004.12 1306.72Z" stroke="#ED7D31" stroke-width="9.16667" stroke-linejoin="round" stroke-miterlimit="10" fill="#ED7D31"/><path d="M2815.12 1435.72C2815.12 1441.79 2810.2 1446.72 2804.12 1446.72 2798.05 1446.72 2793.13 1441.79 2793.13 1435.72 2793.13 1429.64 2798.05 1424.72 2804.12 1424.72 2810.2 1424.72 2815.12 1429.64 2815.12 1435.72Z" stroke="#ED7D31" stroke-width="9.16667" stroke-linejoin="round" stroke-miterlimit="10" fill="#ED7D31"/><path d="M3502.12 1113.72C3502.12 1119.79 3497.2 1124.72 3491.12 1124.72 3485.05 1124.72 3480.12 1119.79 3480.12 1113.72 3480.12 1107.64 3485.05 1102.72 3491.12 1102.72 3497.2 1102.72 3502.12 1107.64 3502.12 1113.72Z" stroke="#ED7D31" stroke-width="9.16667" stroke-linejoin="round" stroke-miterlimit="10" fill="#ED7D31"/><path d="M2637.12 1437.72C2637.12 1443.79 2632.2 1448.72 2626.12 1448.72 2620.05 1448.72 2615.12 1443.79 2615.12 1437.72 2615.12 1431.64 2620.05 1426.72 2626.12 1426.72 2632.2 1426.72 2637.12 1431.64 2637.12 1437.72Z" stroke="#ED7D31" stroke-width="9.16667" stroke-linejoin="round" stroke-miterlimit="10" fill="#ED7D31"/><path d="M3301.12 1316.72C3301.12 1322.79 3296.2 1327.72 3290.12 1327.72 3284.05 1327.72 3279.12 1322.79 3279.12 1316.72 3279.12 1310.64 3284.05 1305.72 3290.12 1305.72 3296.2 1305.72 3301.12 1310.64 3301.12 1316.72Z" stroke="#ED7D31" stroke-width="9.16667" stroke-linejoin="round" stroke-miterlimit="10" fill="#ED7D31"/><path d="M2815.12 1328.72C2815.12 1334.79 2810.2 1339.72 2804.12 1339.72 2798.05 1339.72 2793.13 1334.79 2793.13 1328.72 2793.13 1322.64 2798.05 1317.72 2804.12 1317.72 2810.2 1317.72 2815.12 1322.64 2815.12 1328.72Z" stroke="#ED7D31" stroke-width="9.16667" stroke-linejoin="round" stroke-miterlimit="10" fill="#ED7D31"/><path d="M3188.12 1285.72C3188.12 1291.79 3183.2 1296.72 3177.12 1296.72 3171.05 1296.72 3166.12 1291.79 3166.12 1285.72 3166.12 1279.64 3171.05 1274.72 3177.12 1274.72 3183.2 1274.72 3188.12 1279.64 3188.12 1285.72Z" stroke="#ED7D31" stroke-width="9.16667" stroke-linejoin="round" stroke-miterlimit="10" fill="#ED7D31"/><path d="M3259.12 907.718C3259.12 913.793 3254.2 918.718 3248.12 918.718 3242.05 918.718 3237.12 913.793 3237.12 907.718 3237.12 901.643 3242.05 896.718 3248.12 896.718 3254.2 896.718 3259.12 901.643 3259.12 907.718Z" stroke="#ED7D31" stroke-width="9.16667" stroke-linejoin="round" stroke-miterlimit="10" fill="#ED7D31"/><path d="M2323.12 1511.72C2323.12 1517.79 2318.2 1522.72 2312.12 1522.72 2306.05 1522.72 2301.12 1517.79 2301.12 1511.72 2301.12 1505.64 2306.05 1500.72 2312.12 1500.72 2318.2 1500.72 2323.12 1505.64 2323.12 1511.72Z" stroke="#ED7D31" stroke-width="9.16667" stroke-linejoin="round" stroke-miterlimit="10" fill="#ED7D31"/><path d="M3384.12 549.718C3384.12 555.793 3379.2 560.718 3373.12 560.718 3367.05 560.718 3362.12 555.793 3362.12 549.718 3362.12 543.643 3367.05 538.719 3373.12 538.719 3379.2 538.719 3384.12 543.643 3384.12 549.718Z" stroke="#ED7D31" stroke-width="9.16667" stroke-linejoin="round" stroke-miterlimit="10" fill="#ED7D31"/><path d="M3242.12 1335.72C3242.12 1341.79 3237.2 1346.72 3231.12 1346.72 3225.05 1346.72 3220.12 1341.79 3220.12 1335.72 3220.12 1329.64 3225.05 1324.72 3231.12 1324.72 3237.2 1324.72 3242.12 1329.64 3242.12 1335.72Z" stroke="#ED7D31" stroke-width="9.16667" stroke-linejoin="round" stroke-miterlimit="10" fill="#ED7D31"/><path d="M3105.12 1175.72C3105.12 1181.79 3100.2 1186.72 3094.12 1186.72 3088.05 1186.72 3083.12 1181.79 3083.12 1175.72 3083.12 1169.64 3088.05 1164.72 3094.12 1164.72 3100.2 1164.72 3105.12 1169.64 3105.12 1175.72Z" stroke="#ED7D31" stroke-width="9.16667" stroke-linejoin="round" stroke-miterlimit="10" fill="#ED7D31"/><path d="M3591.12 1098.72C3591.12 1104.79 3586.2 1109.72 3580.12 1109.72 3574.05 1109.72 3569.12 1104.79 3569.12 1098.72 3569.12 1092.64 3574.05 1087.72 3580.12 1087.72 3586.2 1087.72 3591.12 1092.64 3591.12 1098.72Z" stroke="#ED7D31" stroke-width="9.16667" stroke-linejoin="round" stroke-miterlimit="10" fill="#ED7D31"/><path d="M3182.12 1314.72C3182.12 1320.79 3177.2 1325.72 3171.12 1325.72 3165.05 1325.72 3160.12 1320.79 3160.12 1314.72 3160.12 1308.64 3165.05 1303.72 3171.12 1303.72 3177.2 1303.72 3182.12 1308.64 3182.12 1314.72Z" stroke="#ED7D31" stroke-width="9.16667" stroke-linejoin="round" stroke-miterlimit="10" fill="#ED7D31"/><path d="M2690.12 1464.72C2690.12 1470.79 2685.2 1475.72 2679.12 1475.72 2673.05 1475.72 2668.12 1470.79 2668.12 1464.72 2668.12 1458.64 2673.05 1453.72 2679.12 1453.72 2685.2 1453.72 2690.12 1458.64 2690.12 1464.72Z" stroke="#ED7D31" stroke-width="9.16667" stroke-linejoin="round" stroke-miterlimit="10" fill="#ED7D31"/><path d="M3502.12 1370.72C3502.12 1376.79 3497.2 1381.72 3491.12 1381.72 3485.05 1381.72 3480.12 1376.79 3480.12 1370.72 3480.12 1364.64 3485.05 1359.72 3491.12 1359.72 3497.2 1359.72 3502.12 1364.64 3502.12 1370.72Z" stroke="#ED7D31" stroke-width="9.16667" stroke-linejoin="round" stroke-miterlimit="10" fill="#ED7D31"/><path d="M3479.12 1487.72C3479.12 1493.79 3474.2 1498.72 3468.12 1498.72 3462.05 1498.72 3457.12 1493.79 3457.12 1487.72 3457.12 1481.64 3462.05 1476.72 3468.12 1476.72 3474.2 1476.72 3479.12 1481.64 3479.12 1487.72Z" stroke="#ED7D31" stroke-width="9.16667" stroke-linejoin="round" stroke-miterlimit="10" fill="#ED7D31"/><path d="M2536.12 1350.72C2536.12 1356.79 2531.2 1361.72 2525.12 1361.72 2519.05 1361.72 2514.12 1356.79 2514.12 1350.72 2514.12 1344.64 2519.05 1339.72 2525.12 1339.72 2531.2 1339.72 2536.12 1344.64 2536.12 1350.72Z" stroke="#ED7D31" stroke-width="9.16667" stroke-linejoin="round" stroke-miterlimit="10" fill="#ED7D31"/><path d="M3010.12 1256.72C3010.12 1262.79 3005.2 1267.72 2999.12 1267.72 2993.05 1267.72 2988.12 1262.79 2988.12 1256.72 2988.12 1250.64 2993.05 1245.72 2999.12 1245.72 3005.2 1245.72 3010.12 1250.64 3010.12 1256.72Z" stroke="#ED7D31" stroke-width="9.16667" stroke-linejoin="round" stroke-miterlimit="10" fill="#ED7D31"/></g><g clip-path="url(#clip6)"><path d="M0 0 1749 332" stroke="#4472C4" stroke-width="9.16667" stroke-linecap="round" stroke-linejoin="round" stroke-miterlimit="10" stroke-dasharray="27.5 36.6667" fill="none" fill-rule="evenodd" transform="matrix(1 0 0 -1 2312.5 1435.5)"/></g><g clip-path="url(#clip7)"><text fill="#595959" font-family="Verdana,Verdana_MSFontService,sans-serif" font-weight="700" font-size="50" transform="matrix(1 0 0 1 3586.46 834)">y = 180.2x + 11403</text></g><g clip-path="url(#clip8)"><text fill="#595959" font-family="Verdana,Verdana_MSFontService,sans-serif" font-weight="700" font-size="50" transform="matrix(1 0 0 1 3713.65 895)">R² = 0.153</text></g><g clip-path="url(#clip9)"><text fill="#595959" font-family="Verdana,Verdana_MSFontService,sans-serif" font-weight="400" font-size="41" transform="matrix(1 0 0 1 2104.6 1548)">0</text></g><g clip-path="url(#clip10)"><text fill="#595959" font-family="Verdana,Verdana_MSFontService,sans-serif" font-weight="400" font-size="41" transform="matrix(1 0 0 1 1999.73 1423)">20000</text></g><g clip-path="url(#clip11)"><text fill="#595959" font-family="Verdana,Verdana_MSFontService,sans-serif" font-weight="400" font-size="41" transform="matrix(1 0 0 1 1999.73 1298)">40000</text></g><g clip-path="url(#clip12)"><text fill="#595959" font-family="Verdana,Verdana_MSFontService,sans-serif" font-weight="400" font-size="41" transform="matrix(1 0 0 1 1999.73 1173)">60000</text></g><g clip-path="url(#clip13)"><text fill="#595959" font-family="Verdana,Verdana_MSFontService,sans-serif" font-weight="400" font-size="41" transform="matrix(1 0 0 1 1999.73 1048)">80000</text></g><g clip-path="url(#clip14)"><text fill="#595959" font-family="Verdana,Verdana_MSFontService,sans-serif" font-weight="400" font-size="41" transform="matrix(1 0 0 1 1973.51 923)">100000</text></g><g clip-path="url(#clip15)"><text fill="#595959" font-family="Verdana,Verdana_MSFontService,sans-serif" font-weight="400" font-size="41" transform="matrix(1 0 0 1 1973.51 798)">120000</text></g><g clip-path="url(#clip16)"><text fill="#595959" font-family="Verdana,Verdana_MSFontService,sans-serif" font-weight="400" font-size="41" transform="matrix(1 0 0 1 1973.51 673)">140000</text></g><g clip-path="url(#clip17)"><text fill="#595959" font-family="Verdana,Verdana_MSFontService,sans-serif" font-weight="400" font-size="41" transform="matrix(1 0 0 1 1973.51 548)">160000</text></g><g clip-path="url(#clip18)"><text fill="#595959" font-family="Verdana,Verdana_MSFontService,sans-serif" font-weight="400" font-size="41" transform="matrix(1 0 0 1 1973.51 423)">180000</text></g><g clip-path="url(#clip19)"><text fill="#595959" font-family="Verdana,Verdana_MSFontService,sans-serif" font-weight="400" font-size="41" transform="matrix(1 0 0 1 2156.6 1603)">0</text></g><g clip-path="url(#clip20)"><text fill="#595959" font-family="Verdana,Verdana_MSFontService,sans-serif" font-weight="400" font-size="41" transform="matrix(1 0 0 1 2439.96 1603)">50</text></g><g clip-path="url(#clip21)"><text fill="#595959" font-family="Verdana,Verdana_MSFontService,sans-serif" font-weight="400" font-size="41" transform="matrix(1 0 0 1 2723.31 1603)">100</text></g><g clip-path="url(#clip22)"><text fill="#595959" font-family="Verdana,Verdana_MSFontService,sans-serif" font-weight="400" font-size="41" transform="matrix(1 0 0 1 3019.77 1603)">150</text></g><g clip-path="url(#clip23)"><text fill="#595959" font-family="Verdana,Verdana_MSFontService,sans-serif" font-weight="400" font-size="41" transform="matrix(1 0 0 1 3316.23 1603)">200</text></g><g clip-path="url(#clip24)"><text fill="#595959" font-family="Verdana,Verdana_MSFontService,sans-serif" font-weight="400" font-size="41" transform="matrix(1 0 0 1 3612.7 1603)">250</text></g><g clip-path="url(#clip25)"><text fill="#595959" font-family="Verdana,Verdana_MSFontService,sans-serif" font-weight="400" font-size="41" transform="matrix(1 0 0 1 3909.16 1603)">300</text></g><g clip-path="url(#clip26)"><text fill="#595959" font-family="Verdana,Verdana_MSFontService,sans-serif" font-weight="400" font-size="41" transform="matrix(1 0 0 1 4205.62 1603)">350</text></g><g clip-path="url(#clip27)"><text fill="#595959" font-family="Verdana,Verdana_MSFontService,sans-serif" font-weight="400" font-size="55" transform="matrix(6.12323e-17 -1 1 6.12323e-17 1947.92 1509)">Number of Pixels for Waterbody Labels</text></g><g clip-path="url(#clip28)"><text fill="#595959" font-family="Verdana,Verdana_MSFontService,sans-serif" font-weight="400" font-size="55" transform="matrix(1 0 0 1 2646.12 1681)">Number of Images for Waterbody Labels</text></g><rect x="1836.5" y="359.5" width="2499" height="1391" stroke="#D9D9D9" stroke-width="3.4375" stroke-linejoin="round" stroke-miterlimit="10" fill="none"/></g></svg>